<svg width="36" height="26" viewBox="0 0 36 26" fill="none" xmlns="http://www.w3.org/2000/svg">
<rect x="0.389108" y="0.840768" width="35.0197" height="24.1247" rx="4.28018" fill="white"/>
<path fill-rule="evenodd" clip-rule="evenodd" d="M9.88056 9.10902C9.57958 9.47416 9.098 9.76215 8.61643 9.72101C8.55623 9.2273 8.792 8.70274 9.0679 8.37875C9.36889 8.00333 9.89561 7.7359 10.322 7.71533C10.3722 8.22961 10.1765 8.7336 9.88056 9.10902ZM10.3169 9.81858C9.89269 9.79355 9.50557 9.94938 9.19289 10.0753C8.99167 10.1563 8.82127 10.2249 8.69163 10.2249C8.54616 10.2249 8.36873 10.1526 8.16951 10.0715L8.16951 10.0715C7.90847 9.96515 7.61004 9.8436 7.29707 9.84943C6.57973 9.85972 5.91255 10.2763 5.54635 10.9397C4.79389 12.2665 5.35071 14.2311 6.07809 15.311C6.43425 15.8459 6.86065 16.4322 7.42248 16.4116C7.66966 16.402 7.84746 16.3247 8.03147 16.2446C8.24332 16.1525 8.46339 16.0567 8.80701 16.0567C9.13872 16.0567 9.34917 16.15 9.55119 16.2395C9.74327 16.3246 9.92773 16.4063 10.2016 16.4013C10.7835 16.391 11.1497 15.8665 11.5058 15.3316C11.8902 14.7576 12.0591 14.1974 12.0847 14.1123L12.0877 14.1025C12.0871 14.1019 12.0824 14.0996 12.074 14.0957C11.9455 14.0354 10.9635 13.5745 10.954 12.3385C10.9446 11.3011 11.733 10.7755 11.8571 10.6928C11.8646 10.6877 11.8697 10.6843 11.872 10.6826C11.3704 9.92143 10.5878 9.83915 10.3169 9.81858ZM14.3452 16.345V8.32749H17.2798C18.7947 8.32749 19.8532 9.39719 19.8532 10.9606C19.8532 12.524 18.7746 13.604 17.2396 13.604H15.5591V16.345H14.3452ZM15.559 9.37626H16.9586C18.012 9.37626 18.614 9.95225 18.614 10.9654C18.614 11.9785 18.012 12.5596 16.9536 12.5596H15.559V9.37626ZM23.8613 15.3831C23.5403 16.0106 22.833 16.4066 22.0705 16.4066C20.9418 16.4066 20.1542 15.7174 20.1542 14.6786C20.1542 13.65 20.9167 13.0586 22.3263 12.9712L23.8413 12.8786V12.4363C23.8413 11.7832 23.4249 11.4284 22.6825 11.4284C22.0705 11.4284 21.624 11.7524 21.5337 12.2461H20.4402C20.4753 11.2072 21.4284 10.4512 22.7176 10.4512C24.1071 10.4512 25.0101 11.1969 25.0101 12.3541V16.3448H23.8864V15.3831H23.8613ZM22.3964 15.4551C21.7493 15.4551 21.338 15.1363 21.338 14.6477C21.338 14.1437 21.7343 13.8506 22.4917 13.8043L23.8412 13.7169V14.1694C23.8412 14.9203 23.2191 15.4551 22.3964 15.4551ZM28.7372 16.6585C28.2506 18.0625 27.6938 18.5254 26.5099 18.5254C26.4196 18.5254 26.1186 18.5151 26.0484 18.4945V17.5328C26.1237 17.5431 26.3093 17.5534 26.4046 17.5534C26.9413 17.5534 27.2423 17.322 27.4279 16.7203L27.5383 16.3654L25.4816 10.5284H26.7507L28.1804 15.2649H28.2055L29.6351 10.5284H30.8692L28.7372 16.6585Z" fill="black"/>
<rect x="0.389108" y="0.840768" width="35.0197" height="24.1247" rx="4.28018" stroke="#F2F4F7" stroke-width="0.778215"/>
</svg>
