<svg width="141" height="47" viewBox="0 0 141 47" fill="none" xmlns="http://www.w3.org/2000/svg">
<path d="M140.455 40.0074V40.0655C140.424 43.1804 137.89 45.6966 134.768 45.6966H6.23291C3.0918 45.6969 0.544244 43.1492 0.544244 40.0074V6.35108C0.544244 3.20991 3.09174 0.662408 6.23291 0.662408H134.768C137.909 0.662408 140.455 3.20977 140.455 6.35108V40.0074Z" fill="#010101" stroke="#555555" stroke-width="1.08849"/>
<path d="M31.6264 22.0605C31.5963 18.7101 34.3697 17.0802 34.4965 17.0043C32.9258 14.7143 30.4913 14.4014 29.6358 14.3764C27.5911 14.1613 25.6077 15.5999 24.5661 15.5999C23.5037 15.5999 21.8998 14.3972 20.1711 14.4326C17.9465 14.4669 15.8655 15.7548 14.7241 17.7548C12.3686 21.8328 14.1253 27.8256 16.3821 31.1218C17.511 32.7362 18.8301 34.5387 20.5567 34.4753C22.2459 34.4056 22.8769 33.3983 24.9154 33.3983C26.9352 33.3983 27.5277 34.4753 29.2886 34.4347C31.1015 34.4056 32.2429 32.8131 33.3323 31.1842C34.6369 29.3339 35.1608 27.5116 35.1816 27.4181C35.1389 27.4035 31.6607 26.0761 31.6264 22.0605Z" fill="white"/>
<path d="M28.3007 12.2076C29.2092 11.0714 29.8308 9.52565 29.6583 7.95703C28.3433 8.01524 26.6988 8.8666 25.7518 9.97783C24.914 10.957 24.1655 12.562 24.3589 14.0714C25.836 14.1816 27.3527 13.3261 28.3007 12.2076Z" fill="white"/>
<path d="M56.0753 34.2429H53.7146L52.4215 30.1795H47.9266L46.6948 34.2429H44.3965L48.8497 20.4092H51.6003L56.0753 34.2429ZM52.0317 28.4747L50.8622 24.8624C50.7385 24.4934 50.5067 23.6244 50.1647 22.2564H50.1231C49.9869 22.8447 49.7676 23.7138 49.4662 24.8624L48.3175 28.4747H52.0317Z" fill="white"/>
<path d="M67.528 29.1331C67.528 30.8296 67.0695 32.1706 66.1527 33.155C65.3315 34.0313 64.3117 34.4689 63.0945 34.4689C61.7805 34.4689 60.8366 33.997 60.2618 33.0531H60.2202V38.3078H58.004V27.5521C58.004 26.4855 57.9759 25.3909 57.9219 24.2683H59.8709L59.9946 25.8493H60.0362C60.7753 24.6581 61.8969 24.0635 63.4021 24.0635C64.5789 24.0635 65.5612 24.5281 66.3471 25.4585C67.135 26.3899 67.528 27.6144 67.528 29.1331ZM65.2701 29.2142C65.2701 28.2433 65.0518 27.4429 64.6132 26.813C64.134 26.156 63.4905 25.8275 62.6838 25.8275C62.1371 25.8275 61.6402 26.0105 61.1963 26.3712C60.7514 26.735 60.4603 27.2101 60.3242 27.7984C60.2556 28.0729 60.2213 28.2974 60.2213 28.4741V30.1373C60.2213 30.8629 60.4437 31.4752 60.8886 31.9752C61.3335 32.4752 61.9115 32.7246 62.6225 32.7246C63.4572 32.7246 64.1069 32.4024 64.5716 31.76C65.0373 31.1165 65.2701 30.2683 65.2701 29.2142Z" fill="white"/>
<path d="M78.9996 29.1331C78.9996 30.8296 78.5411 32.1706 77.6233 33.155C76.8031 34.0313 75.7833 34.4689 74.5661 34.4689C73.2521 34.4689 72.3083 33.997 71.7345 33.0531H71.6929V38.3078H69.4767V27.5521C69.4767 26.4855 69.4486 25.3909 69.3945 24.2683H71.3436L71.4673 25.8493H71.5089C72.2469 24.6581 73.3686 24.0635 74.8748 24.0635C76.0505 24.0635 77.0328 24.5281 77.8208 25.4585C78.6056 26.3899 78.9996 27.6144 78.9996 29.1331ZM76.7418 29.2142C76.7418 28.2433 76.5224 27.4429 76.0837 26.813C75.6045 26.156 74.9632 25.8275 74.1555 25.8275C73.6077 25.8275 73.1118 26.0105 72.6669 26.3712C72.222 26.735 71.932 27.2101 71.7958 27.7984C71.7282 28.0729 71.6929 28.2974 71.6929 28.4741V30.1373C71.6929 30.8629 71.9153 31.4752 72.3582 31.9752C72.8031 32.4741 73.381 32.7246 74.0941 32.7246C74.9289 32.7246 75.5786 32.4024 76.0432 31.76C76.5089 31.1165 76.7418 30.2683 76.7418 29.2142Z" fill="white"/>
<path d="M91.8283 30.3631C91.8283 31.5398 91.4197 32.4972 90.5996 33.2363C89.6983 34.044 88.4436 34.4473 86.8314 34.4473C85.3428 34.4473 84.1494 34.1604 83.2461 33.5855L83.7596 31.7383C84.7326 32.3267 85.8002 32.6219 86.9634 32.6219C87.7981 32.6219 88.4478 32.4327 88.9145 32.0564C89.3792 31.6801 89.611 31.1749 89.611 30.545C89.611 29.9836 89.4197 29.5107 89.0361 29.1271C88.6546 28.7435 88.0174 28.387 87.1276 28.0574C84.7056 27.1541 83.4956 25.8308 83.4956 24.0907C83.4956 22.9535 83.9197 22.021 84.769 21.2955C85.6151 20.5688 86.744 20.2061 88.1557 20.2061C89.4145 20.2061 90.4603 20.4254 91.295 20.863L90.7409 22.6697C89.9613 22.2456 89.0798 22.0335 88.0933 22.0335C87.3137 22.0335 86.7045 22.2258 86.2679 22.6084C85.8989 22.9504 85.7139 23.3672 85.7139 23.861C85.7139 24.4077 85.9249 24.8599 86.349 25.2154C86.718 25.5439 87.3885 25.8994 88.3615 26.283C89.5517 26.7622 90.426 27.3225 90.9883 27.9649C91.5486 28.6053 91.8283 29.4067 91.8283 30.3631Z" fill="white"/>
<path d="M99.1549 25.9299H96.7121V30.773C96.7121 32.0048 97.1425 32.6202 98.0053 32.6202C98.4013 32.6202 98.7298 32.5859 98.9897 32.5173L99.051 34.2002C98.6144 34.3634 98.0396 34.4456 97.3275 34.4456C96.4522 34.4456 95.7682 34.1784 95.2745 33.6451C94.7828 33.1108 94.5354 32.2148 94.5354 30.9559V25.9278H93.0801V24.2646H94.5354V22.4382L96.7121 21.7812V24.2646H99.1549V25.9299Z" fill="white"/>
<path d="M110.177 29.1726C110.177 30.7059 109.738 31.9648 108.863 32.9492C107.945 33.9627 106.726 34.4679 105.208 34.4679C103.744 34.4679 102.579 33.9824 101.71 33.0115C100.841 32.0406 100.406 30.8151 100.406 29.3379C100.406 27.7922 100.853 26.5261 101.75 25.5417C102.645 24.5562 103.853 24.0635 105.372 24.0635C106.836 24.0635 108.013 24.5489 108.902 25.5209C109.752 26.4637 110.177 27.681 110.177 29.1726ZM107.877 29.2444C107.877 28.3244 107.681 27.5354 107.283 26.8774C106.818 26.0812 106.154 25.6841 105.293 25.6841C104.402 25.6841 103.725 26.0822 103.261 26.8774C102.863 27.5365 102.666 28.3379 102.666 29.286C102.666 30.2059 102.863 30.9949 103.261 31.6519C103.74 32.4481 104.409 32.8452 105.273 32.8452C106.119 32.8452 106.784 32.4398 107.263 31.6311C107.671 30.9606 107.877 30.1633 107.877 29.2444Z" fill="white"/>
<path d="M117.382 26.2173C117.162 26.1768 116.929 26.156 116.683 26.156C115.904 26.156 115.301 26.4502 114.877 27.0396C114.508 27.5593 114.322 28.2163 114.322 29.0094V34.2434H112.107L112.128 27.4096C112.128 26.26 112.1 25.2132 112.045 24.2693H113.975L114.056 26.1778H114.118C114.352 25.5219 114.721 24.9938 115.226 24.5978C115.72 24.2412 116.253 24.0635 116.828 24.0635C117.032 24.0635 117.218 24.078 117.382 24.104V26.2173Z" fill="white"/>
<path d="M127.293 28.7821C127.293 29.1792 127.267 29.5139 127.212 29.7873H120.563C120.589 30.7727 120.91 31.5264 121.528 32.0461C122.088 32.5108 122.812 32.7436 123.702 32.7436C124.687 32.7436 125.585 32.5867 126.392 32.2717L126.74 33.8102C125.796 34.2218 124.681 34.4266 123.396 34.4266C121.849 34.4266 120.635 33.9713 119.751 33.0617C118.87 32.1522 118.428 30.9307 118.428 29.3985C118.428 27.8943 118.838 26.6417 119.661 25.6428C120.521 24.5762 121.685 24.043 123.148 24.043C124.586 24.043 125.674 24.5762 126.413 25.6428C126.998 26.49 127.293 27.5378 127.293 28.7821ZM125.179 28.2072C125.194 27.5503 125.049 26.9827 124.749 26.5035C124.365 25.8871 123.776 25.5794 122.983 25.5794C122.258 25.5794 121.669 25.8798 121.219 26.4827C120.85 26.9619 120.63 27.5367 120.563 28.2062L125.179 28.2072Z" fill="white"/>
<path d="M51.2972 11.8964C51.2972 13.1199 50.9303 14.0409 50.1974 14.6594C49.5187 15.2301 48.554 15.5159 47.3045 15.5159C46.685 15.5159 46.1548 15.4889 45.7109 15.4348V8.74977C46.2899 8.65622 46.9136 8.6084 47.5872 8.6084C48.7775 8.6084 49.6746 8.86724 50.2796 9.38491C50.9573 9.97015 51.2972 10.807 51.2972 11.8964ZM50.1486 11.9265C50.1486 11.1334 49.9386 10.5252 49.5187 10.1011C49.0987 9.67805 48.4854 9.46599 47.6777 9.46599C47.3346 9.46599 47.0425 9.48886 46.8003 9.53668V14.6188C46.9344 14.6396 47.1798 14.649 47.5363 14.649C48.37 14.649 49.0135 14.4172 49.4667 13.9535C49.9199 13.4899 50.1486 12.8142 50.1486 11.9265Z" fill="white"/>
<path d="M57.3892 12.9654C57.3892 13.7191 57.1741 14.3365 56.7437 14.8209C56.2926 15.3189 55.6948 15.5673 54.9485 15.5673C54.2291 15.5673 53.6564 15.3293 53.2291 14.8511C52.8029 14.374 52.5898 13.7721 52.5898 13.0465C52.5898 12.2877 52.8092 11.665 53.2499 11.1816C53.6907 10.6983 54.2832 10.4561 55.0296 10.4561C55.7489 10.4561 56.3269 10.6941 56.7645 11.1712C57.1803 11.6349 57.3892 12.2336 57.3892 12.9654ZM56.2593 13.0008C56.2593 12.5486 56.1616 12.1608 55.9672 11.8376C55.7385 11.4467 55.4131 11.2513 54.9901 11.2513C54.5524 11.2513 54.2198 11.4467 53.9911 11.8376C53.7957 12.1608 53.699 12.5548 53.699 13.0205C53.699 13.4727 53.7967 13.8604 53.9911 14.1837C54.2271 14.5746 54.5555 14.77 54.9797 14.77C55.3955 14.77 55.7219 14.5715 55.9568 14.1733C56.1585 13.8438 56.2593 13.453 56.2593 13.0008Z" fill="white"/>
<path d="M65.5529 10.5547L64.0197 15.4549H63.0218L62.3866 13.327C62.2255 12.7959 62.0945 12.2678 61.9926 11.7439H61.9729C61.8783 12.2823 61.7473 12.8094 61.5789 13.327L60.9043 15.4549H59.8949L58.4531 10.5547H59.5727L60.1267 12.8842C60.2608 13.4352 60.371 13.9601 60.4594 14.457H60.4791C60.5602 14.0474 60.6943 13.5256 60.8835 12.8946L61.5789 10.5557H62.4667L63.133 12.8447C63.2941 13.4029 63.4251 13.9404 63.5259 14.458H63.5561C63.6299 13.9539 63.7411 13.4164 63.8887 12.8447L64.4833 10.5557H65.5529V10.5547Z" fill="white"/>
<path d="M71.2015 15.4563H70.1121V12.6496C70.1121 11.7847 69.7836 11.3523 69.1246 11.3523C68.8013 11.3523 68.5404 11.4708 68.3376 11.7088C68.137 11.9469 68.0352 12.2276 68.0352 12.5488V15.4552H66.9457V11.9563C66.9457 11.5259 66.9322 11.0592 66.9062 10.554H67.8636L67.9146 11.3201H67.9447C68.0715 11.082 68.2607 10.8856 68.5092 10.7286C68.8044 10.5456 69.1349 10.4531 69.4967 10.4531C69.9541 10.4531 70.3345 10.6007 70.637 10.897C71.0133 11.2598 71.2015 11.8014 71.2015 12.5207V15.4563Z" fill="white"/>
<path d="M74.2055 15.4563H73.1172V8.30762H74.2055V15.4563Z" fill="white"/>
<path d="M80.6197 12.9654C80.6197 13.7191 80.4045 14.3365 79.9742 14.8209C79.523 15.3189 78.9243 15.5673 78.179 15.5673C77.4586 15.5673 76.8858 15.3293 76.4596 14.8511C76.0334 14.374 75.8203 13.7721 75.8203 13.0465C75.8203 12.2877 76.0397 11.665 76.4804 11.1816C76.9212 10.6983 77.5137 10.4561 78.259 10.4561C78.9794 10.4561 79.5563 10.6941 79.995 11.1712C80.4108 11.6349 80.6197 12.2336 80.6197 12.9654ZM79.4887 13.0008C79.4887 12.5486 79.391 12.1608 79.1966 11.8376C78.969 11.4467 78.6426 11.2513 78.2205 11.2513C77.7819 11.2513 77.4492 11.4467 77.2216 11.8376C77.0261 12.1608 76.9295 12.5548 76.9295 13.0205C76.9295 13.4727 77.0272 13.8604 77.2216 14.1837C77.4575 14.5746 77.786 14.77 78.2101 14.77C78.6259 14.77 78.9513 14.5715 79.1862 14.1733C79.3889 13.8438 79.4887 13.453 79.4887 13.0008Z" fill="white"/>
<path d="M85.892 15.4561H84.9139L84.8328 14.8916H84.8026C84.4679 15.3417 83.9908 15.5673 83.3712 15.5673C82.9086 15.5673 82.5344 15.4187 82.2527 15.1234C81.997 14.8552 81.8691 14.5216 81.8691 14.1255C81.8691 13.5268 82.1186 13.0704 82.6207 12.7544C83.1217 12.4384 83.8265 12.2835 84.734 12.2908V12.1993C84.734 11.5538 84.3951 11.2315 83.7163 11.2315C83.233 11.2315 82.8068 11.3531 82.4388 11.5943L82.2174 10.8791C82.6727 10.5974 83.2351 10.4561 83.8983 10.4561C85.1789 10.4561 85.8213 11.1317 85.8213 12.4831V14.2877C85.8213 14.7773 85.8453 15.1671 85.892 15.4561ZM84.761 13.7721V13.0164C83.5594 12.9956 82.9585 13.3251 82.9585 14.0039C82.9585 14.2596 83.0272 14.4509 83.1675 14.5787C83.3078 14.7066 83.4866 14.77 83.6997 14.77C83.9388 14.77 84.1623 14.6941 84.366 14.5434C84.5708 14.3916 84.6966 14.1993 84.7434 13.9633C84.7548 13.9103 84.761 13.8459 84.761 13.7721Z" fill="white"/>
<path d="M92.0821 15.4563H91.1153L91.0644 14.6694H91.0342C90.7255 15.2681 90.1995 15.5675 89.4604 15.5675C88.87 15.5675 88.3783 15.3357 87.9885 14.8721C87.5987 14.4085 87.4043 13.8066 87.4043 13.0675C87.4043 12.2744 87.6153 11.632 88.0394 11.1413C88.45 10.6839 88.9532 10.4552 89.5519 10.4552C90.2099 10.4552 90.6704 10.6767 90.9324 11.1205H90.9532V8.30762H92.0436V14.1361C92.0436 14.6133 92.0561 15.053 92.0821 15.4563ZM90.9532 13.3898V12.5727C90.9532 12.4313 90.9428 12.317 90.923 12.2297C90.8617 11.9677 90.7297 11.7473 90.529 11.5696C90.3263 11.3918 90.0821 11.3024 89.8004 11.3024C89.3939 11.3024 89.0758 11.4636 88.8419 11.7868C88.6101 12.1101 88.4927 12.5228 88.4927 13.027C88.4927 13.5114 88.6039 13.9043 88.8274 14.2068C89.0633 14.5291 89.3814 14.6902 89.7796 14.6902C90.1372 14.6902 90.423 14.5561 90.6403 14.2869C90.8503 14.0384 90.9532 13.739 90.9532 13.3898Z" fill="white"/>
<path d="M101.399 12.9654C101.399 13.7191 101.184 14.3365 100.753 14.8209C100.302 15.3189 99.7057 15.5673 98.9583 15.5673C98.24 15.5673 97.6672 15.3293 97.2389 14.8511C96.8127 14.374 96.5996 13.7721 96.5996 13.0465C96.5996 12.2877 96.8189 11.665 97.2597 11.1816C97.7004 10.6983 98.293 10.4561 99.0404 10.4561C99.7587 10.4561 100.338 10.6941 100.774 11.1712C101.19 11.6349 101.399 12.2336 101.399 12.9654ZM100.27 13.0008C100.27 12.5486 100.172 12.1608 99.978 11.8376C99.7483 11.4467 99.424 11.2513 98.9998 11.2513C98.5632 11.2513 98.2306 11.4467 98.0009 11.8376C97.8054 12.1608 97.7088 12.5548 97.7088 13.0205C97.7088 13.4727 97.8065 13.8604 98.0009 14.1837C98.2368 14.5746 98.5653 14.77 98.9894 14.77C99.4052 14.77 99.7327 14.5715 99.9676 14.1733C100.168 13.8438 100.27 13.453 100.27 13.0008Z" fill="white"/>
<path d="M107.257 15.4563H106.169V12.6496C106.169 11.7847 105.84 11.3523 105.18 11.3523C104.857 11.3523 104.596 11.4708 104.394 11.7088C104.193 11.9469 104.092 12.2276 104.092 12.5488V15.4552H103.001V11.9563C103.001 11.5259 102.989 11.0592 102.963 10.554H103.919L103.97 11.3201H104C104.128 11.082 104.317 10.8856 104.565 10.7286C104.861 10.5456 105.191 10.4531 105.553 10.4531C106.01 10.4531 106.39 10.6007 106.693 10.897C107.07 11.2598 107.257 11.8014 107.257 12.5207V15.4563Z" fill="white"/>
<path d="M114.588 11.3714H113.388V13.7518C113.388 14.3568 113.601 14.6593 114.023 14.6593C114.219 14.6593 114.381 14.6427 114.509 14.6084L114.537 15.4348C114.322 15.5159 114.039 15.5564 113.691 15.5564C113.26 15.5564 112.926 15.4254 112.684 15.1635C112.44 14.9015 112.32 14.4608 112.32 13.8423V11.3714H111.604V10.5553H112.32V9.65721L113.387 9.33496V10.5543H114.587L114.588 11.3714Z" fill="white"/>
<path d="M120.355 15.4563H119.265V12.6704C119.265 11.792 118.936 11.3523 118.278 11.3523C117.773 11.3523 117.428 11.607 117.239 12.1164C117.207 12.2234 117.188 12.3544 117.188 12.5083V15.4553H116.1V8.30762H117.188V11.2609H117.209C117.552 10.7234 118.043 10.4552 118.681 10.4552C119.132 10.4552 119.505 10.6028 119.801 10.8991C120.17 11.2681 120.355 11.817 120.355 12.5426V15.4563Z" fill="white"/>
<path d="M126.306 12.7747C126.306 12.9701 126.291 13.1344 126.265 13.2685H122.998C123.013 13.7529 123.169 14.1219 123.471 14.3776C123.748 14.6063 124.104 14.7207 124.541 14.7207C125.024 14.7207 125.465 14.6438 125.862 14.4889L126.032 15.2456C125.568 15.4473 125.021 15.5481 124.388 15.5481C123.629 15.5481 123.031 15.3246 122.599 14.8776C122.164 14.4307 121.949 13.8309 121.949 13.0783C121.949 12.3392 122.15 11.7238 122.554 11.2331C122.976 10.7092 123.547 10.4473 124.267 10.4473C124.972 10.4473 125.507 10.7092 125.869 11.2331C126.161 11.6489 126.306 12.1635 126.306 12.7747ZM125.266 12.493C125.275 12.1697 125.203 11.8911 125.055 11.6562C124.866 11.3537 124.578 11.2019 124.188 11.2019C123.833 11.2019 123.543 11.3496 123.321 11.6458C123.14 11.8818 123.033 12.1635 122.998 12.493H125.266Z" fill="white"/>
</svg>
