<svg width="150" height="35" viewBox="0 0 150 35" fill="none" xmlns="http://www.w3.org/2000/svg">
<path fill-rule="evenodd" clip-rule="evenodd" d="M0.26416 8.97915C0.26416 15.4487 0.282142 17.9763 0.328555 18.0227C0.363993 18.0581 4.23828 20.2111 8.93809 22.8071L17.4831 27.5271L15.6022 29.4117L13.7212 31.2962L15.6137 33.1481C16.6545 34.1667 17.5237 35 17.5452 35C17.5668 35 18.436 34.1667 19.4768 33.1481L21.3692 31.2962L19.4883 29.4117L17.6073 27.5271L26.1524 22.8071C30.8522 20.2111 34.7265 18.0581 34.7619 18.0227C34.8083 17.9763 34.8263 15.4487 34.8263 8.97915C34.8263 4.04062 34.8129 0 34.7966 0C34.7803 0 30.9124 2.4883 26.2013 5.52959C21.4902 8.57088 17.5949 11.0592 17.5452 11.0592C17.4955 11.0592 13.6003 8.57088 8.88916 5.52959C4.17803 2.4883 0.310165 0 0.293818 0C0.27753 0 0.26416 4.04062 0.26416 8.97915ZM62.3534 7.92103C61.2732 8.0566 60.1305 8.43234 59.3175 8.91913C57.2328 10.1676 55.9171 12.371 55.4573 15.3837C55.3072 16.3677 55.3077 18.7074 55.4584 19.7039C56.1856 24.5148 59.0211 27.1491 63.4701 27.1473C64.8369 27.1467 65.9937 26.9101 67.0376 26.4177C69.2322 25.3826 70.7174 23.3012 71.2846 20.4663C71.4885 19.447 71.5486 18.7727 71.5486 17.5019C71.5486 15.218 71.2203 13.5966 70.4343 11.9975C69.1027 9.28875 66.6504 7.85751 63.3968 7.89033C62.9192 7.89511 62.4497 7.90895 62.3534 7.92103ZM41.1899 17.5146V26.7389H43.1457H45.1015V22.9733V19.2077H47.8455H50.5894V17.7773V16.347H47.8455H45.1015V13.749V11.151H48.2542C50.1482 11.151 51.4068 11.1294 51.4068 11.0969C51.4068 11.0672 51.4987 10.431 51.6111 9.68312C51.7235 8.9353 51.8155 8.31593 51.8155 8.30682C51.8155 8.29771 49.4247 8.29024 46.5027 8.29024H41.1899V17.5146ZM75.1683 8.338C75.1683 8.36427 76.2329 10.3086 77.5342 12.6586L79.9002 16.9315L77.3223 21.7914C75.9044 24.4644 74.7331 26.6711 74.7194 26.6952C74.7056 26.7193 75.6351 26.7384 76.7849 26.7378L78.8755 26.7367L80.5345 23.1181C81.4469 21.1279 82.2073 19.5134 82.2242 19.5302C82.2411 19.5472 83.0059 21.1695 83.9236 23.1354L85.5922 26.7098L87.7429 26.7251C89.4562 26.7373 89.8875 26.7254 89.8638 26.6667C89.8475 26.6262 88.6503 24.3884 87.2034 21.6939C85.7565 18.9994 84.5819 16.7794 84.5931 16.7607C84.9715 16.1257 89.3551 8.37425 89.3551 8.33992C89.3551 8.3126 88.4347 8.29024 87.3098 8.29024H85.2647L84.1728 10.5234C83.5723 11.7515 82.8966 13.1317 82.6713 13.5904L82.2617 14.4243L80.8313 11.3582L79.4009 8.29199L77.2846 8.29112C76.1206 8.29065 75.1683 8.31173 75.1683 8.338ZM98.1708 17.6022V26.7389H98.9586H99.7464L99.7613 22.2873L99.7763 17.8357L104.082 17.8207L108.388 17.8057V22.274V26.7422L109.19 26.726L109.993 26.7098V17.6022V8.49458L109.19 8.47835L108.388 8.46212V12.4633V16.4645L104.082 16.4495L99.7763 16.4345L99.7613 12.45L99.7462 8.46539H98.9585H98.1708V17.6022ZM118.254 15.1717C118.254 20.8924 118.267 21.9541 118.343 22.3964C118.599 23.8999 119.272 25.1014 120.298 25.8868C121.228 26.5994 122.278 26.939 123.771 27.0107C125.703 27.1034 127.264 26.6237 128.338 25.6073C129.124 24.8629 129.607 24.0397 129.916 22.9149L130.076 22.3311L130.092 15.3966L130.109 8.46206L129.305 8.47835L128.5 8.49458L128.47 15.3253L128.44 22.156L128.31 22.623C128.239 22.8799 128.061 23.3319 127.916 23.6274C127.426 24.623 126.63 25.2284 125.464 25.4922C124.774 25.6484 123.479 25.6348 122.786 25.4641C121.278 25.0928 120.37 24.115 119.986 22.4494C119.868 21.9348 119.865 21.7654 119.846 15.1939L119.826 8.46539H119.04H118.254V15.1717ZM138.365 8.53837C138.349 8.57853 138.344 12.6835 138.352 17.6606L138.367 26.7098L141.082 26.727C142.722 26.7374 144.061 26.7192 144.464 26.6809C147.286 26.414 149.021 25.2512 149.608 23.2345C149.77 22.6781 149.831 21.2888 149.723 20.6193C149.568 19.6597 149.195 18.9123 148.585 18.342C147.941 17.7399 146.967 17.2574 146.146 17.1343C145.814 17.0845 145.83 17.0274 146.203 16.9336C146.738 16.7988 147.387 16.4084 147.854 15.94C148.352 15.4414 148.602 15.0143 148.798 14.3307C148.973 13.7201 148.987 12.4423 148.825 11.8515C148.627 11.1292 148.346 10.6426 147.831 10.1293C146.902 9.20339 145.548 8.69804 143.534 8.5243C142.504 8.43555 138.399 8.44671 138.365 8.53837ZM139.972 13.1651V16.4637H142.152C144.142 16.4637 144.373 16.4535 144.794 16.3466C146.662 15.8728 147.619 14.316 147.245 12.3592C146.977 10.9611 145.969 10.1983 144.032 9.92891C143.785 9.89464 142.771 9.86656 141.778 9.86656H139.972V13.1651ZM62.908 10.8548C61.1089 11.1069 60.0696 12.366 59.6283 14.8279C59.4561 15.7882 59.4107 18.3651 59.5453 19.5288C59.8146 21.8554 60.5434 23.2337 61.828 23.8459C62.3899 24.1137 62.7749 24.1931 63.4919 24.1893C65.4653 24.1787 66.6617 23.0487 67.1593 20.7253C67.3692 19.7454 67.4267 19.0547 67.4267 17.5146C67.4267 15.9745 67.3692 15.2838 67.1593 14.3039C66.6803 12.0674 65.5657 10.9519 63.6962 10.8382C63.4393 10.8226 63.0846 10.83 62.908 10.8548ZM139.972 21.5969V25.3962L141.738 25.3956C144.423 25.3949 145.354 25.2762 146.312 24.8131C147.147 24.4092 147.645 23.8467 147.952 22.9633C148.094 22.5523 148.11 22.4239 148.112 21.6889C148.113 21.0911 148.086 20.7696 148.012 20.4921C147.669 19.2123 146.786 18.3778 145.343 17.9704C144.936 17.8554 144.732 17.8449 142.439 17.8222L139.972 17.7976V21.5969Z" fill="#CDD4F0"/>
</svg>
