<svg width="141" height="47" viewBox="0 0 141 47" fill="none" xmlns="http://www.w3.org/2000/svg">
<path d="M140.455 39.8893V39.9473C140.424 43.0622 137.89 45.5785 134.768 45.5785H6.23291C3.0918 45.5787 0.544244 43.0311 0.544244 39.8893V6.23291C0.544244 3.09174 3.09174 0.544244 6.23291 0.544244H134.768C137.909 0.544244 140.455 3.0916 140.455 6.23291V39.8893Z" fill="#010101" stroke="#555555" stroke-width="1.08849"/>
<mask id="mask0_108_6309" style="mask-type:luminance" maskUnits="userSpaceOnUse" x="8" y="7" width="27" height="32">
<path d="M28.254 18.847L21.8963 15.1765C21.8963 15.1765 10.3137 8.48845 9.63277 8.09534C8.95186 7.70224 8.27344 7.94042 8.27344 8.76192V37.6111C8.27344 38.227 8.75832 38.4925 9.34991 38.1512C9.94122 37.8093 21.8963 30.9068 21.8963 30.9068L28.2538 27.2365C28.2538 27.2365 33.6481 24.1223 34.3651 23.7085C35.0821 23.2942 35.0132 22.7263 34.4081 22.4005C33.8033 22.0743 28.254 18.847 28.254 18.847V18.847Z" fill="white"/>
</mask>
<g mask="url(#mask0_108_6309)">
<path d="M8.27344 7.42493V38.6592L24.0236 23.0422L8.27344 7.42493Z" fill="url(#paint0_linear_108_6309)"/>
</g>
<mask id="mask1_108_6309" style="mask-type:luminance" maskUnits="userSpaceOnUse" x="8" y="7" width="27" height="32">
<path d="M28.254 18.847L21.8963 15.1765C21.8963 15.1765 10.3137 8.48845 9.63277 8.09534C8.95186 7.70224 8.27344 7.94042 8.27344 8.76192V37.6111C8.27344 38.227 8.75832 38.4925 9.34991 38.1512C9.94122 37.8093 21.8963 30.9068 21.8963 30.9068L28.2538 27.2365C28.2538 27.2365 33.6481 24.1223 34.3651 23.7085C35.0821 23.2942 35.0132 22.7263 34.4081 22.4005C33.8033 22.0743 28.254 18.847 28.254 18.847V18.847Z" fill="white"/>
</mask>
<g mask="url(#mask1_108_6309)">
<path d="M28.2538 18.8467L21.896 15.1761L8.27344 7.31067V7.42425L24.0236 23.0415L28.2538 18.8467Z" fill="url(#paint1_linear_108_6309)"/>
</g>
<mask id="mask2_108_6309" style="mask-type:luminance" maskUnits="userSpaceOnUse" x="8" y="7" width="27" height="32">
<path d="M28.254 18.847L21.8963 15.1765C21.8963 15.1765 10.3137 8.48845 9.63277 8.09534C8.95186 7.70224 8.27344 7.94042 8.27344 8.76192V37.6111C8.27344 38.227 8.75832 38.4925 9.34991 38.1512C9.94122 37.8093 21.8963 30.9068 21.8963 30.9068L28.2538 27.2365C28.2538 27.2365 33.6481 24.1223 34.3651 23.7085C35.0821 23.2942 35.0132 22.7263 34.4081 22.4005C33.8033 22.0743 28.254 18.847 28.254 18.847V18.847Z" fill="white"/>
</mask>
<g mask="url(#mask2_108_6309)">
<path d="M8.27344 38.6582V38.7717L21.896 30.906L28.2535 27.2355L24.0236 23.0411L8.27344 38.6582Z" fill="url(#paint2_linear_108_6309)"/>
</g>
<mask id="mask3_108_6309" style="mask-type:luminance" maskUnits="userSpaceOnUse" x="8" y="7" width="27" height="32">
<path d="M28.254 18.847L21.8963 15.1765C21.8963 15.1765 10.3137 8.48845 9.63277 8.09534C8.95186 7.70224 8.27344 7.94042 8.27344 8.76192V37.6111C8.27344 38.227 8.75832 38.4925 9.34991 38.1512C9.94122 37.8093 21.8963 30.9068 21.8963 30.9068L28.2538 27.2365C28.2538 27.2365 33.6481 24.1223 34.3651 23.7085C35.0821 23.2942 35.0132 22.7263 34.4081 22.4005C33.8033 22.0743 28.254 18.847 28.254 18.847V18.847Z" fill="white"/>
</mask>
<g mask="url(#mask3_108_6309)">
<path d="M28.2536 18.8468L24.0234 23.0417L28.2533 27.236L35.5192 23.0414L28.2536 18.8468Z" fill="url(#paint3_linear_108_6309)"/>
</g>
<path d="M107.431 29.147C106.84 29.147 106.3 29.0378 105.811 28.8198C105.322 28.6014 104.912 28.2657 104.58 27.813H104.481C104.547 28.3434 104.58 28.8463 104.58 29.3212V33.059H103.205V19.8977H104.324L104.514 21.141H104.58C104.934 20.6434 105.346 20.2847 105.815 20.0637C106.285 19.8426 106.824 19.732 107.431 19.732C108.636 19.732 109.565 20.1439 110.22 20.967C110.875 21.7902 111.202 22.9452 111.202 24.4311C111.202 25.923 110.869 27.0817 110.204 27.9084C109.538 28.7343 108.614 29.147 107.431 29.147ZM107.232 20.9006C106.304 20.9006 105.633 21.1578 105.218 21.6714C104.804 22.1852 104.591 23.0032 104.58 24.1249V24.4311C104.58 25.7077 104.793 26.6208 105.218 27.1707C105.644 27.7207 106.327 27.995 107.265 27.995C108.05 27.995 108.665 27.6777 109.11 27.0423C109.555 26.4071 109.777 25.5313 109.777 24.4146C109.777 23.2824 109.554 22.4129 109.11 21.8081C108.665 21.2027 108.039 20.9006 107.232 20.9006ZM114.388 28.981H113.012V16.0852H114.388V28.981ZM122.298 28.981L122.024 27.6882H121.958C121.505 28.2577 121.053 28.6434 120.603 28.8443C120.152 29.0464 119.59 29.147 118.916 29.147C118.016 29.147 117.31 28.9149 116.799 28.4509C116.287 27.987 116.032 27.327 116.032 26.4702C116.032 24.6362 117.499 23.6747 120.433 23.5859L121.975 23.536V22.9725C121.975 22.2596 121.821 21.7331 121.514 21.3938C121.208 21.0536 120.717 20.8838 120.043 20.8838C119.286 20.8838 118.43 21.1159 117.474 21.5798L117.051 20.5273C117.499 20.2842 117.989 20.0937 118.523 19.9556C119.056 19.8175 119.59 19.7483 120.126 19.7483C121.209 19.7483 122.012 19.9884 122.534 20.4692C123.056 20.95 123.317 21.7207 123.317 22.7818V28.9808H122.298L122.298 28.981ZM119.19 28.0118C120.046 28.0118 120.718 27.7769 121.208 27.3075C121.696 26.838 121.941 26.1802 121.941 25.3345V24.5141L120.565 24.5717C119.471 24.6111 118.683 24.7804 118.199 25.0822C117.715 25.3833 117.474 25.8516 117.474 26.4871C117.474 26.9841 117.624 27.3629 117.926 27.622C118.227 27.8819 118.648 28.0118 119.19 28.0118ZM124.116 19.8977H125.591L127.58 25.0778C128.016 26.2604 128.287 27.1139 128.392 27.6391H128.459C128.531 27.3568 128.681 26.8752 128.91 26.1921C129.14 25.5095 129.89 23.4119 131.16 19.8977H132.636L128.732 30.2411C128.346 31.2633 127.894 31.9886 127.377 32.4175C126.86 32.8454 126.226 33.059 125.475 33.059C125.055 33.059 124.641 33.0122 124.231 32.9185V31.8163C124.535 31.8825 124.875 31.9158 125.251 31.9158C126.196 31.9158 126.87 31.3854 127.273 30.3244L127.779 29.0317L124.116 19.8977ZM81.9458 20.7418C82.3825 21.1032 83.2944 21.8624 83.2944 23.3072C83.2944 24.7123 82.4963 25.3786 81.6983 26.0046C81.4513 26.2513 81.1662 26.5182 81.1662 26.9367C81.1662 27.3537 81.451 27.582 81.6608 27.7532L82.345 28.2841C83.1808 28.9874 83.94 29.6338 83.94 30.9452C83.94 32.731 82.211 34.5352 78.9438 34.5352C76.1884 34.5352 74.8592 33.2247 74.8592 31.818C74.8592 31.1343 75.1996 30.1659 76.3221 29.5001C77.4993 28.7781 79.0962 28.6841 79.9508 28.6257C79.684 28.2842 79.3807 27.923 79.3807 27.335C79.3807 27.0125 79.4761 26.8223 79.5707 26.5932C79.3609 26.6125 79.1522 26.6315 78.962 26.6315C76.9487 26.6315 75.8089 25.1305 75.8089 23.6493C75.8089 22.7752 76.2083 21.8056 77.0243 21.1035C78.1077 20.2106 79.3995 20.0581 80.4264 20.0581H84.3392L83.1232 20.7421H81.9458L81.9458 20.7418ZM80.5964 29.1779C80.4445 29.158 80.3491 29.158 80.16 29.158C79.9891 29.158 78.9617 29.1969 78.1647 29.4635C77.7468 29.6143 76.5305 30.0702 76.5305 31.4199C76.5305 32.7682 77.8422 33.7386 79.8752 33.7386C81.698 33.7386 82.668 32.8628 82.668 31.6859C82.6681 30.715 82.0409 30.2042 80.5964 29.1779ZM81.1477 25.5674C81.5841 25.1299 81.6216 24.5226 81.6216 24.1802C81.6216 22.8126 80.8051 20.6847 79.2285 20.6847C78.7339 20.6847 78.2025 20.9315 77.8984 21.3119C77.5758 21.7108 77.4799 22.2233 77.4799 22.7178C77.4799 23.9906 78.2209 26.0997 79.8557 26.0997C80.3307 26.0997 80.8426 25.8718 81.1477 25.5674ZM69.9847 28.8738C66.9692 28.8738 65.3568 26.5215 65.3568 24.3966C65.3568 21.9115 67.386 19.788 70.2704 19.788C73.0574 19.788 74.8027 21.9685 74.8027 24.2643C74.8029 26.5017 73.0775 28.8738 69.9847 28.8738ZM72.3555 27.3375C72.8115 26.7299 72.9253 25.9716 72.9253 25.2311C72.9253 23.5614 72.1286 20.3752 69.7763 20.3752C69.1506 20.3752 68.5248 20.6222 68.0697 21.0214C67.3298 21.6843 67.1964 22.5194 67.1964 23.3359C67.1964 25.2124 68.1259 28.3034 70.4217 28.3034C71.1613 28.3034 71.9202 27.9437 72.3555 27.3375ZM59.7036 28.8738C56.6875 28.8738 55.0748 26.5215 55.0748 24.3966C55.0748 21.9115 57.1048 19.788 59.9884 19.788C62.7762 19.788 64.5212 21.9685 64.5212 24.2643C64.5215 26.5017 62.7958 28.8738 59.7036 28.8738ZM62.0749 27.3375C62.5301 26.7299 62.6442 25.9716 62.6442 25.2311C62.6442 23.5614 61.8469 20.3752 59.4946 20.3752C58.8691 20.3752 58.2428 20.6222 57.7879 21.0214C57.048 21.6843 56.9154 22.5194 56.9154 23.3359C56.9154 25.2124 57.8445 28.3034 60.1405 28.3034C60.8804 28.3034 61.6388 27.9437 62.0749 27.3375ZM53.6259 28.5764L50.8984 29.2057C49.7918 29.3777 48.8006 29.5291 47.7522 29.5291C42.488 29.5291 40.4863 25.6576 40.4863 22.6252C40.4863 18.926 43.3274 15.4941 48.191 15.4941C49.2212 15.4941 50.212 15.6463 51.1082 15.8944C52.5384 16.295 53.2058 16.7903 53.6256 17.0768L52.0422 18.5833L51.375 18.7352L51.8517 17.9721C51.2036 17.3433 50.0201 16.1803 47.7707 16.1803C44.7573 16.1803 42.4874 18.4697 42.4874 21.8067C42.4874 25.391 45.0815 28.7666 49.238 28.7666C50.4598 28.7666 51.0878 28.519 51.6604 28.2897V25.2201L48.7813 25.3725L50.3063 24.5516H54.3495L53.8541 25.0282C53.7196 25.1432 53.7012 25.1818 53.6631 25.3328C53.6433 25.5049 53.6254 26.0584 53.6254 26.2489V28.5764H53.6259V28.5764Z" fill="#F9F9F9"/>
<path d="M87.9726 28.0279C87.3429 27.9706 87.2111 27.8567 87.2111 27.1122V16.3185C87.215 16.2775 87.2175 16.2353 87.2213 16.1956C87.2982 15.5285 87.4887 15.4141 88.0806 15.0703H85.3526L83.9219 15.757H85.3799V15.7656L85.3788 15.7587V27.5323C85.3788 27.913 85.3035 27.9709 84.8644 28.5423H88.2403L88.9459 28.1239C88.622 28.0844 88.2973 28.066 87.9726 28.0279ZM95.7327 28.2033C95.5251 28.3171 95.3167 28.4503 95.1091 28.5443C94.483 28.8282 93.8394 28.9043 93.2701 28.9043C92.6655 28.9043 91.7178 28.8651 90.751 28.1652C89.4074 27.2175 88.8202 25.5888 88.8202 24.1688C88.8202 21.2338 91.2064 19.7945 93.1571 19.7945C93.8391 19.7945 94.5407 19.9646 95.1088 20.3252C96.0549 20.949 96.3011 21.7633 96.4329 22.1992L91.9833 23.999L90.5247 24.1126C90.9975 26.5178 92.6262 27.9182 94.426 27.9182C95.3917 27.9182 96.0927 27.578 96.7364 27.2566L95.7327 28.2033ZM93.953 22.5586C94.3122 22.4266 94.5015 22.3125 94.5015 22.0475C94.5015 21.2905 93.6497 20.4189 92.6261 20.4189C91.8677 20.4189 90.4483 21.0063 90.4483 23.0513C90.4483 23.3733 90.4864 23.714 90.5059 24.0561L93.953 22.5586ZM97.5606 19.924V21.1737H97.4088V19.924H96.9953V19.7945H97.9739V19.924H97.5606ZM99.2643 21.1737V19.9125H99.2574L98.8726 21.1737H98.7538L98.3656 19.9125H98.3606V21.1737H98.2228V19.7945H98.459L98.8102 20.9093H98.8152L99.1612 19.7945H99.4008V21.1737H99.2643Z" fill="#F9F9F9"/>
<path d="M44.2728 11.7812H43.325C43.325 11.6508 43.2351 11.2817 43.0554 10.6736H41.6872C41.5017 11.2718 41.4088 11.6409 41.4088 11.7812H40.5176C40.5176 11.7043 40.748 11.0725 41.209 9.886C41.6699 8.69951 41.9003 8.04587 41.9003 7.9257H43.0198C43.0198 8.03818 43.2285 8.68214 43.6462 9.85788C44.0638 11.0336 44.2728 11.6745 44.2728 11.7812ZM42.9046 10.1079C42.5669 9.08929 42.3982 8.53852 42.3982 8.45552H42.3508C42.3508 8.53245 42.176 9.08322 41.8267 10.1079H42.9046ZM48.0914 11.7812H47.36C47.36 11.7002 47.0885 11.2729 46.5457 10.4991C45.9772 9.68365 45.6533 9.12625 45.5745 8.82607H45.5271C45.5764 9.25829 45.6013 9.6492 45.6013 9.99877C45.6013 10.4864 45.615 11.0808 45.6426 11.7815H44.914C44.9435 11.1695 44.9584 10.4975 44.9584 9.765C44.9584 9.04442 44.9435 8.43131 44.914 7.926H45.7934C45.7934 8.03076 46.0371 8.4484 46.5247 9.17865C47.0438 9.95439 47.3421 10.4806 47.419 10.7571H47.4634C47.416 10.3169 47.3923 9.92211 47.3923 9.57258C47.3923 9.0378 47.3785 8.48865 47.3509 7.926H48.0914C48.0635 8.41559 48.05 9.02868 48.05 9.765C48.0497 10.5068 48.0635 11.1789 48.0914 11.7812ZM52.3833 9.72007C52.3833 10.2808 52.2035 10.7704 51.8443 11.1888C51.4849 11.6076 50.9815 11.8165 50.3339 11.8165C50.0417 11.8165 49.639 11.8047 49.1257 11.781C49.1513 11.1847 49.1643 10.5123 49.1643 9.76445C49.1643 9.04605 49.1513 8.43296 49.1257 7.92543H49.6439C49.7288 7.92543 49.8551 7.92239 50.023 7.91661C50.1906 7.91082 50.3003 7.90778 50.3516 7.90778C51.0642 7.90778 51.5808 8.08559 51.9019 8.44093C52.2228 8.79627 52.3833 9.22246 52.3833 9.72007ZM51.575 9.84738C51.575 9.46833 51.4644 9.14911 51.2433 8.88915C51.0223 8.62974 50.6846 8.49992 50.2305 8.49992C50.1456 8.49992 50.0293 8.50875 49.881 8.52666C49.9006 8.92168 49.9105 9.33408 49.9105 9.76443C49.9105 10.2364 49.9204 10.7042 49.94 11.1681C50.0666 11.1937 50.1955 11.2066 50.3248 11.2067C50.7493 11.2067 51.0636 11.0747 51.2679 10.8111C51.4722 10.5476 51.575 10.2264 51.575 9.84738ZM56.3411 11.7812H55.4644C55.2354 11.0824 55.0598 10.651 54.9374 10.4872C54.815 10.3232 54.6176 10.2413 54.3452 10.2413C54.2306 10.2413 54.1211 10.2424 54.0166 10.2444C54.0166 10.7519 54.0254 11.2641 54.0434 11.7812H53.2202C53.2458 11.185 53.2588 10.5126 53.2588 9.7647C53.2588 9.04633 53.2459 8.43321 53.2202 7.9257H53.7324C53.7917 7.9257 53.9155 7.92267 54.104 7.91688C54.2926 7.91109 54.4668 7.90804 54.6267 7.90804C55.5328 7.90804 55.986 8.21789 55.986 8.8379C55.986 9.32942 55.7274 9.6718 55.2103 9.8656V9.90998C55.4096 9.96511 55.5844 10.1209 55.7343 10.3761C55.884 10.6317 56.0863 11.1 56.3411 11.7812ZM55.2307 9.05676C55.2307 8.66393 54.9779 8.4674 54.4726 8.4674C54.287 8.4674 54.123 8.48118 53.9811 8.50875C54.0028 8.81474 54.0136 9.21364 54.0136 9.70516C54.1222 9.70929 54.214 9.71095 54.289 9.71095C54.9167 9.71122 55.2307 9.49317 55.2307 9.05676ZM60.5858 9.78232C60.5858 10.3883 60.4003 10.8908 60.029 11.2897C59.6577 11.6883 59.1987 11.8879 58.652 11.8879C58.1307 11.8879 57.6943 11.7048 57.3431 11.3385C56.9916 10.9724 56.8161 10.5068 56.8161 9.94249C56.8161 9.33656 57.0016 8.83401 57.3729 8.43512C57.744 8.0365 58.2029 7.83691 58.7499 7.83691C59.2711 7.83691 59.7073 8.01941 60.0588 8.38467C60.4102 8.74996 60.5858 9.21557 60.5858 9.78232ZM59.7688 9.86808C59.7688 9.4554 59.6632 9.12074 59.452 8.86409C59.2406 8.60744 58.9801 8.47925 58.6702 8.47925C58.3819 8.47925 58.1371 8.60854 57.9358 8.86712C57.7346 9.1257 57.6334 9.45239 57.6334 9.8474C57.6334 10.2579 57.7395 10.592 57.9518 10.8498C58.1641 11.1075 58.424 11.2363 58.7322 11.2363C59.0203 11.2363 59.2654 11.1064 59.4666 10.8467C59.6679 10.5873 59.7688 10.2609 59.7688 9.86808ZM62.2603 11.7812H61.4222C61.4479 11.1692 61.4608 10.4972 61.4608 9.7647C61.4608 9.0441 61.4479 8.43101 61.4222 7.9257H62.2603C62.2346 8.42329 62.2217 9.0361 62.2217 9.7647C62.2217 10.5087 62.2346 11.1811 62.2603 11.7812ZM66.5525 9.72007C66.5525 10.2808 66.3727 10.7704 66.0135 11.1888C65.6541 11.6076 65.1507 11.8165 64.5031 11.8165C64.2109 11.8165 63.8082 11.8047 63.2948 11.781C63.3205 11.1847 63.3335 10.5123 63.3335 9.76445C63.3335 9.04605 63.3205 8.43296 63.2948 7.92543H63.8131C63.898 7.92543 64.0243 7.92239 64.1922 7.91661C64.3598 7.91082 64.4695 7.90778 64.5208 7.90778C65.2334 7.90778 65.75 8.08559 66.0711 8.44093C66.392 8.79627 66.5525 9.22246 66.5525 9.72007ZM65.7442 9.84738C65.7442 9.46833 65.6336 9.14911 65.4125 8.88915C65.1915 8.62974 64.8538 8.49992 64.3997 8.49992C64.3148 8.49992 64.1985 8.50875 64.0502 8.52666C64.0697 8.92168 64.0796 9.33408 64.0796 9.76443C64.0796 10.2364 64.0896 10.7042 64.1091 11.1681C64.2358 11.1937 64.3647 11.2066 64.494 11.2067C64.9185 11.2067 65.2328 11.0747 65.437 10.8111C65.6414 10.5476 65.7442 10.2264 65.7442 9.84738ZM72.2467 11.7812H71.299C71.299 11.6508 71.2091 11.2817 71.0291 10.6736H69.6609C69.4754 11.2718 69.3825 11.6409 69.3825 11.7812H68.4915C68.4915 11.7043 68.722 11.0725 69.1829 9.886C69.6438 8.69951 69.8743 8.04587 69.8743 7.9257H70.9938C70.9938 8.03818 71.2027 8.68214 71.6201 9.85788C72.0375 11.0336 72.2467 11.6745 72.2467 11.7812ZM70.8786 10.1079C70.5409 9.08929 70.3718 8.53852 70.3718 8.45552H70.3244C70.3244 8.53245 70.1499 9.08322 69.8007 10.1079H70.8786ZM75.7009 8.93521C75.7009 9.40716 75.5255 9.7556 75.1751 9.98055C74.8248 10.2055 74.395 10.3182 73.8855 10.3182C73.7926 10.3182 73.7268 10.3163 73.6871 10.3124C73.6871 10.6838 73.6978 11.1731 73.7196 11.7812H72.8873C72.9129 11.2109 72.9259 10.5385 72.9259 9.7647C72.9259 9.05402 72.913 8.44093 72.8873 7.9257H73.4025C73.4756 7.9257 73.6156 7.92267 73.8229 7.91688C74.0303 7.91109 74.2097 7.90804 74.3619 7.90804C74.7368 7.90804 75.0538 7.99294 75.3124 8.16276C75.571 8.33259 75.7009 8.58979 75.7009 8.93521ZM74.937 9.09813C74.937 8.67578 74.6566 8.46436 74.0959 8.46436C73.9556 8.46436 73.8076 8.47923 73.6518 8.50875C73.6736 8.882 73.6843 9.30433 73.6843 9.77628C73.7337 9.78041 73.791 9.78207 73.8561 9.78207C74.5767 9.78232 74.937 9.55436 74.937 9.09813ZM79.2526 8.93521C79.2526 9.40716 79.0773 9.7556 78.7272 9.98055C78.3768 10.2055 77.9467 10.3182 77.4373 10.3182C77.3444 10.3182 77.2785 10.3163 77.2388 10.3124C77.2388 10.6838 77.2496 11.1731 77.2714 11.7812H76.4391C76.4647 11.2109 76.4777 10.5385 76.4777 9.7647C76.4777 9.05402 76.4648 8.44093 76.4391 7.9257H76.9543C77.0274 7.9257 77.1674 7.92267 77.3747 7.91688C77.582 7.91109 77.7615 7.90804 77.9137 7.90804C78.2886 7.90804 78.6056 7.99294 78.8642 8.16276C79.1227 8.33259 79.2526 8.58979 79.2526 8.93521ZM78.4887 9.09813C78.4887 8.67578 78.2084 8.46436 77.6477 8.46436C77.5074 8.46436 77.3593 8.47923 77.2036 8.50875C77.2253 8.882 77.2361 9.30433 77.2361 9.77628C77.2854 9.78041 77.3428 9.78207 77.4078 9.78207C78.1284 9.78232 78.4887 9.55436 78.4887 9.09813ZM85.0596 9.78232C85.0596 10.3883 84.8741 10.8908 84.5027 11.2897C84.1314 11.6886 83.6724 11.8879 83.1258 11.8879C82.6045 11.8879 82.1681 11.7048 81.8169 11.3385C81.4657 10.9724 81.2898 10.5068 81.2898 9.94249C81.2898 9.33656 81.4754 8.83401 81.8467 8.43512C82.218 8.03622 82.677 7.83691 83.2236 7.83691C83.7449 7.83691 84.1813 8.01941 84.5325 8.38467C84.8837 8.74996 85.0596 9.21557 85.0596 9.78232ZM84.2422 9.86808C84.2422 9.4554 84.1366 9.12074 83.9255 8.86409C83.7143 8.60744 83.4535 8.47925 83.1437 8.47925C82.8553 8.47925 82.6105 8.60854 82.4093 8.86712C82.2081 9.1257 82.1072 9.45239 82.1072 9.8474C82.1072 10.2579 82.2133 10.592 82.4256 10.8498C82.6378 11.1075 82.8978 11.2363 83.2057 11.2363C83.4941 11.2363 83.7389 11.1064 83.9401 10.8467C84.1416 10.5873 84.2422 10.2609 84.2422 9.86808ZM89.0734 11.7812H88.342C88.342 11.7002 88.0707 11.2729 87.5277 10.4991C86.9592 9.68365 86.6353 9.12625 86.5565 8.82607H86.5091C86.5584 9.25829 86.5833 9.6492 86.5833 9.99877C86.5833 10.4864 86.597 11.0808 86.6246 11.7815H85.896C85.9255 11.1695 85.9404 10.4975 85.9404 9.765C85.9404 9.04442 85.9256 8.43131 85.896 7.926H86.7754C86.7754 8.03076 87.0194 8.4484 87.5067 9.17865C88.0261 9.95439 88.3241 10.4806 88.401 10.7571H88.4454C88.398 10.3169 88.3743 9.92211 88.3743 9.57258C88.3743 9.0378 88.3605 8.48865 88.3329 7.926H89.0734C89.0455 8.41559 89.032 9.02868 89.032 9.765C89.032 10.5068 89.0458 11.1789 89.0734 11.7812Z" fill="#F9F9FA"/>
<defs>
<linearGradient id="paint0_linear_108_6309" x1="16.1485" y1="7.42497" x2="16.1485" y2="38.6593" gradientUnits="userSpaceOnUse">
<stop stop-color="#257CB0"/>
<stop offset="0.286" stop-color="#4A93B5"/>
<stop offset="0.767" stop-color="#78BCBB"/>
<stop offset="1" stop-color="#89CFBD"/>
</linearGradient>
<linearGradient id="paint1_linear_108_6309" x1="8.27369" y1="15.1759" x2="28.254" y2="15.1759" gradientUnits="userSpaceOnUse">
<stop stop-color="#52C1AD"/>
<stop offset="1" stop-color="#DEE89A"/>
</linearGradient>
<linearGradient id="paint2_linear_108_6309" x1="18.2634" y1="23.0412" x2="18.2634" y2="38.7718" gradientUnits="userSpaceOnUse">
<stop stop-color="#EC413D"/>
<stop offset="0.167" stop-color="#DA4452"/>
<stop offset="0.575" stop-color="#B0487A"/>
<stop offset="0.862" stop-color="#954A92"/>
<stop offset="1" stop-color="#8A4A9D"/>
</linearGradient>
<linearGradient id="paint3_linear_108_6309" x1="29.7714" y1="18.8468" x2="29.7714" y2="27.2358" gradientUnits="userSpaceOnUse">
<stop stop-color="#F58879"/>
<stop offset="0.119" stop-color="#F69079"/>
<stop offset="0.713" stop-color="#FCB877"/>
<stop offset="1" stop-color="#FEC874"/>
</linearGradient>
</defs>
</svg>
