<svg width="666" height="595" viewBox="0 0 666 595" fill="none" xmlns="http://www.w3.org/2000/svg">
<g filter="url(#filter0_f_1_3779)">
<path d="M125.045 99.591C97.9395 14.0897 223.068 12.0308 266.852 112.107C288.991 162.709 284.744 234.65 279.987 306.758C211.945 226.804 139.257 144.42 125.045 99.591Z" fill="url(#paint0_linear_1_3779)"/>
</g>
<g filter="url(#filter1_f_1_3779)">
<path d="M299.503 537.531C522.739 498.136 616.865 305.042 532.393 182.165C492.996 124.857 431.296 135.496 299.503 143.389C167.71 151.281 36.7243 173.416 36.7222 345.673C36.72 517.929 196.93 555.632 299.503 537.531Z" fill="url(#paint1_radial_1_3779)"/>
<path d="M299.503 537.531C522.739 498.136 616.865 305.042 532.393 182.165C492.996 124.857 431.296 135.496 299.503 143.389C167.71 151.281 36.7243 173.416 36.7222 345.673C36.72 517.929 196.93 555.632 299.503 537.531Z" fill="url(#paint2_linear_1_3779)"/>
</g>
<g style="mix-blend-mode:hard-light" filter="url(#filter2_f_1_3779)">
<path d="M101.366 335.245C101.362 220.027 136.972 112.553 154.888 61.6707C162.261 40.7346 189.85 34.7738 208.243 47.1974C239.564 66.0829 302.661 111.963 366.354 155.947C432.54 201.654 527.983 252.184 484.18 402.026C450.991 515.557 289.054 510.42 289.054 510.42C289.054 510.42 101.372 507.297 101.366 335.245Z" fill="url(#paint3_linear_1_3779)"/>
</g>
<g filter="url(#filter3_f_1_3779)">
<path d="M204.463 455.454C209.71 458.557 214.396 461.575 217.898 464.711C263.572 505.612 333.59 501.272 407.736 481.881C485.944 461.428 612.797 424.571 633.393 326.966C645.06 271.671 602.72 197.394 545.929 137.128C494.196 82.2299 431.082 38.9578 373.909 32.2494C359.584 30.5686 342.103 30.4098 323.345 32.851C214.738 55.2576 156.111 115.98 147.157 239.554C138.202 363.128 148.309 386.982 204.463 455.454Z" fill="url(#paint4_linear_1_3779)" fill-opacity="0.78"/>
</g>
<g filter="url(#filter4_f_1_3779)">
<path d="M288.755 498.947C326.292 602.178 421.184 569.837 406.577 488.517C399.629 449.833 341.72 379.293 279.988 306.753C275.336 377.254 270.198 447.914 288.755 498.947Z" fill="url(#paint5_radial_1_3779)"/>
<path d="M288.755 498.947C326.292 602.178 421.184 569.837 406.577 488.517C399.629 449.833 341.72 379.293 279.988 306.753C275.336 377.254 270.198 447.914 288.755 498.947Z" fill="url(#paint6_linear_1_3779)"/>
</g>
<g opacity="0.6" filter="url(#filter5_df_1_3779)">
<path d="M477.58 286.532C477.58 335.543 437.849 375.274 388.837 375.274C339.826 375.274 300.095 335.543 300.095 286.532C300.095 267.687 305.969 250.214 315.986 235.844C326.118 221.309 332.994 219.421 321.414 206.01C306.371 188.589 293.146 166.983 366.869 155.338C435.639 144.471 470.228 140.398 451.684 203.857C447.45 218.347 452.129 222.53 460.941 234.787C471.413 249.354 477.58 267.223 477.58 286.532Z" fill="white"/>
</g>
<g filter="url(#filter6_f_1_3779)">
<path d="M24.5297 349.833C13.8295 362.022 12.5565 384.711 22.4895 397.389C32.4226 410.067 44.4056 411.739 53.9638 410.016C63.522 408.293 82.2619 399.694 80.2306 377.996C78.1993 356.298 65.7599 348.627 52.651 339.863C47.5857 336.477 35.2299 337.643 24.5297 349.833Z" fill="url(#paint7_linear_1_3779)"/>
</g>
<defs>
<filter id="filter0_f_1_3779" x="105.95" y="20.9108" width="193.139" height="301.139" filterUnits="userSpaceOnUse" color-interpolation-filters="sRGB">
<feFlood flood-opacity="0" result="BackgroundImageFix"/>
<feBlend mode="normal" in="SourceGraphic" in2="BackgroundImageFix" result="shape"/>
<feGaussianBlur stdDeviation="7.64565" result="effect1_foregroundBlur_1_3779"/>
</filter>
<filter id="filter1_f_1_3779" x="6.13956" y="106.496" width="587.49" height="465.732" filterUnits="userSpaceOnUse" color-interpolation-filters="sRGB">
<feFlood flood-opacity="0" result="BackgroundImageFix"/>
<feBlend mode="normal" in="SourceGraphic" in2="BackgroundImageFix" result="shape"/>
<feGaussianBlur stdDeviation="15.2913" result="effect1_foregroundBlur_1_3779"/>
</filter>
<filter id="filter2_f_1_3779" x="86.0749" y="25.4714" width="424.503" height="500.275" filterUnits="userSpaceOnUse" color-interpolation-filters="sRGB">
<feFlood flood-opacity="0" result="BackgroundImageFix"/>
<feBlend mode="normal" in="SourceGraphic" in2="BackgroundImageFix" result="shape"/>
<feGaussianBlur stdDeviation="7.64565" result="effect1_foregroundBlur_1_3779"/>
</filter>
<filter id="filter3_f_1_3779" x="113.703" y="0.417391" width="552.216" height="526.331" filterUnits="userSpaceOnUse" color-interpolation-filters="sRGB">
<feFlood flood-opacity="0" result="BackgroundImageFix"/>
<feBlend mode="normal" in="SourceGraphic" in2="BackgroundImageFix" result="shape"/>
<feGaussianBlur stdDeviation="15.2913" result="effect1_foregroundBlur_1_3779"/>
</filter>
<filter id="filter4_f_1_3779" x="245.031" y="276.171" width="193.644" height="318.263" filterUnits="userSpaceOnUse" color-interpolation-filters="sRGB">
<feFlood flood-opacity="0" result="BackgroundImageFix"/>
<feBlend mode="normal" in="SourceGraphic" in2="BackgroundImageFix" result="shape"/>
<feGaussianBlur stdDeviation="15.2913" result="effect1_foregroundBlur_1_3779"/>
</filter>
<filter id="filter5_df_1_3779" x="250.095" y="98.9805" width="288.651" height="337.459" filterUnits="userSpaceOnUse" color-interpolation-filters="sRGB">
<feFlood flood-opacity="0" result="BackgroundImageFix"/>
<feColorMatrix in="SourceAlpha" type="matrix" values="0 0 0 0 0 0 0 0 0 0 0 0 0 0 0 0 0 0 127 0" result="hardAlpha"/>
<feOffset dx="7.64565" dy="7.64565"/>
<feGaussianBlur stdDeviation="26.7598"/>
<feColorMatrix type="matrix" values="0 0 0 0 1 0 0 0 0 1 0 0 0 0 1 0 0 0 1 0"/>
<feBlend mode="normal" in2="BackgroundImageFix" result="effect1_dropShadow_1_3779"/>
<feBlend mode="normal" in="SourceGraphic" in2="effect1_dropShadow_1_3779" result="shape"/>
<feGaussianBlur stdDeviation="25" result="effect2_foregroundBlur_1_3779"/>
</filter>
<filter id="filter6_f_1_3779" x="0.431108" y="322.927" width="95.2435" height="102.946" filterUnits="userSpaceOnUse" color-interpolation-filters="sRGB">
<feFlood flood-opacity="0" result="BackgroundImageFix"/>
<feBlend mode="normal" in="SourceGraphic" in2="BackgroundImageFix" result="shape"/>
<feGaussianBlur stdDeviation="7.64565" result="effect1_foregroundBlur_1_3779"/>
</filter>
<linearGradient id="paint0_linear_1_3779" x1="121.241" y1="95.4227" x2="272.371" y2="70.3977" gradientUnits="userSpaceOnUse">
<stop stop-color="#E375A0"/>
<stop offset="1" stop-color="#E375A0" stop-opacity="0"/>
</linearGradient>
<radialGradient id="paint1_radial_1_3779" cx="0" cy="0" r="1" gradientUnits="userSpaceOnUse" gradientTransform="translate(163.929 197.608) rotate(69.3339) scale(254.087 306.046)">
<stop stop-color="#B850C1"/>
<stop offset="1" stop-color="#DCADE0" stop-opacity="0"/>
</radialGradient>
<linearGradient id="paint2_linear_1_3779" x1="316.688" y1="136.707" x2="314.327" y2="215.79" gradientUnits="userSpaceOnUse">
<stop stop-color="#B850C1"/>
<stop offset="1" stop-color="#DCADE0" stop-opacity="0"/>
</linearGradient>
<linearGradient id="paint3_linear_1_3779" x1="140.99" y1="389.466" x2="337.019" y2="314.391" gradientUnits="userSpaceOnUse">
<stop stop-color="#7EA1E4"/>
<stop offset="1" stop-color="#70CBFF" stop-opacity="0"/>
</linearGradient>
<linearGradient id="paint4_linear_1_3779" x1="220.585" y1="247.27" x2="538.474" y2="306.37" gradientUnits="userSpaceOnUse">
<stop stop-color="#85FAFE" stop-opacity="0"/>
<stop offset="1" stop-color="#85FAFE"/>
</linearGradient>
<radialGradient id="paint5_radial_1_3779" cx="0" cy="0" r="1" gradientUnits="userSpaceOnUse" gradientTransform="translate(303.652 539.616) rotate(-68.2079) scale(146.08 187.55)">
<stop stop-color="#E375A0" stop-opacity="0"/>
<stop offset="1" stop-color="#FF91C6"/>
</radialGradient>
<linearGradient id="paint6_linear_1_3779" x1="289.054" y1="337.331" x2="299.481" y2="408.235" gradientUnits="userSpaceOnUse">
<stop stop-color="white"/>
<stop offset="1" stop-color="white" stop-opacity="0"/>
</linearGradient>
<linearGradient id="paint7_linear_1_3779" x1="16.3459" y1="382.112" x2="46.0696" y2="363.686" gradientUnits="userSpaceOnUse">
<stop stop-color="#5BAEEC"/>
<stop offset="1" stop-color="#5BAEEC" stop-opacity="0"/>
</linearGradient>
</defs>
</svg>
