<svg width="88" height="35" viewBox="0 0 88 35" fill="none" xmlns="http://www.w3.org/2000/svg">
<path fill-rule="evenodd" clip-rule="evenodd" d="M21.5645 0.0937417C19.1549 0.52885 17.1106 2.28544 16.3441 4.5794C15.9936 5.62812 15.988 5.72133 15.988 10.4201V14.7H20.2678C24.9666 14.7 25.0598 14.6943 26.1086 14.3439C28.0564 13.6929 29.6809 12.0685 30.3318 10.1206C30.6823 9.07188 30.688 8.97867 30.688 4.27986V0L26.3567 0.00525C22.877 0.00945 21.9348 0.0268333 21.5645 0.0937417ZM3.73796 6.7851C3.73796 8.82298 3.76124 10.2017 3.79927 10.4163C4.181 12.5714 5.86654 14.257 8.02161 14.6387C8.23628 14.6767 9.61499 14.7 11.6529 14.7H14.938V11.4149C14.938 9.37703 14.9147 7.99832 14.8767 7.78365C14.4949 5.62858 12.8094 3.94304 10.6543 3.56131C10.4396 3.52327 9.06094 3.5 7.02306 3.5H3.73796V6.7851ZM44.1338 6.06433C43.3317 6.21536 42.5771 6.35757 42.4567 6.38038L42.238 6.42198V16.3676C42.238 27.4043 42.2167 26.784 42.6238 27.6358C42.8639 28.1383 43.3901 28.7271 43.7944 28.9458C43.9489 29.0294 44.2723 29.1592 44.513 29.2343C44.9031 29.3561 45.0609 29.3706 45.9713 29.3688C46.5328 29.3676 47.1996 29.3324 47.4531 29.2905C47.9634 29.2062 49.1238 28.8942 49.1975 28.8215C49.2233 28.796 49.1446 28.2578 49.0225 27.6254C48.8008 26.4773 48.8003 26.4757 48.6546 26.5013C48.5744 26.5154 48.2594 26.5724 47.9546 26.628C47.2932 26.7487 46.7086 26.724 46.4281 26.5634C46.3083 26.4948 46.1779 26.3408 46.088 26.1615L45.9421 25.8708L45.9261 15.8229L45.9101 5.775L45.7511 5.78241C45.6636 5.78649 44.9359 5.91337 44.1338 6.06433ZM51.5019 6.03219C50.8503 6.22014 50.3683 6.70267 50.1564 7.37917C49.8544 8.34348 50.0721 9.30936 50.726 9.90698C51.0864 10.2365 51.4232 10.374 51.9911 10.4238C53.0313 10.515 53.81 10.098 54.242 9.21842C54.3887 8.91969 54.4005 8.84182 54.4005 8.16667C54.4005 7.50073 54.3871 7.40909 54.2468 7.10967C54.0393 6.66721 53.7268 6.33576 53.3377 6.14536C53.0587 6.00892 52.9298 5.98494 52.395 5.9703C51.9989 5.95945 51.6768 5.98179 51.5019 6.03219ZM78.4983 12.9853C75.791 13.4742 73.6171 15.4223 72.6952 18.1855C72.2863 19.4111 72.1307 20.7951 72.2247 22.3714C72.285 23.3829 72.2894 23.4184 72.4655 24.325C72.9818 26.9839 74.3884 28.694 76.5334 29.2703C77.0289 29.4034 77.2077 29.4208 78.113 29.4244C79.1893 29.4286 79.6701 29.361 80.3366 29.1116C81.5314 28.6646 82.4691 27.6236 83.0452 26.1046C83.1922 25.7169 83.2013 25.727 83.3034 26.393C83.4634 27.4365 84.1259 28.8366 84.7217 29.3901L84.8681 29.5261L86.2554 28.9672C87.0184 28.6599 87.6635 28.4083 87.689 28.4083C87.7144 28.4083 87.743 28.8611 87.7527 29.4146C87.7622 29.968 87.7696 28.4521 87.7691 26.0458C87.7684 22.728 87.7643 22.4743 87.7524 24.9958L87.7366 28.3208L87.6176 28.1458C87.0973 27.3809 86.6362 25.9376 86.3559 24.1969C86.2735 23.6854 86.2541 22.8661 86.2256 18.6974L86.1921 13.799L85.638 13.665C84.8586 13.4765 82.9728 13.1428 81.917 13.0067C80.8441 12.8683 79.2029 12.8581 78.4983 12.9853ZM50.4178 19.9354L50.4338 26.7458L50.5895 27.1721C50.8672 27.9322 51.3282 28.5291 51.9337 28.9125C52.7588 29.435 54.4333 29.5486 55.6716 29.1662C56.2908 28.9749 56.2641 29.0753 56.0449 27.7667L55.8545 26.6292H55.2418C54.5377 26.6292 54.3683 26.5592 54.206 26.2017C54.1175 26.0066 54.1073 25.4125 54.0928 19.5562L54.0767 13.125H52.2393H50.4018L50.4178 19.9354ZM57.3463 18.8869C57.3463 22.5166 57.3688 24.8318 57.4069 25.1432C57.5826 26.576 58.114 27.7581 58.8956 28.4547C59.7453 29.212 60.9462 29.4924 62.9056 29.3909C64.2376 29.3219 65.5335 29.0151 66.4463 28.5528C68.7055 27.4083 70.0702 25.003 70.6155 21.2042C70.8798 19.3626 70.998 16.8243 70.8859 15.4C70.8178 14.5356 70.6578 13.2492 70.6085 13.1694C70.5934 13.1449 69.7303 13.125 68.6905 13.125C67.2029 13.125 66.8056 13.1405 66.8264 13.1979C66.841 13.2381 66.909 13.6515 66.9776 14.1167C67.0726 14.7607 67.1091 15.3504 67.131 16.5885C67.2151 21.3567 66.4262 24.7038 64.8767 26.152C64.1908 26.7931 63.1465 26.9831 62.2604 26.6281C61.7425 26.4206 61.3046 25.7072 61.1374 24.7983C61.1018 24.6046 61.0796 22.3055 61.0796 18.8046V13.125H59.213H57.3463V18.8869ZM79.7171 15.5179C78.1411 15.6865 77.0911 16.5715 76.5689 18.171C76.2947 19.011 76.2165 19.7637 76.2235 21.4958C76.2323 23.6875 76.3647 24.6198 76.7967 25.5317C77.1913 26.3645 77.756 26.7736 78.5765 26.8211C79.3922 26.8683 79.9481 26.6232 80.6321 25.9148C81.2834 25.2401 81.7518 24.383 82.0746 23.275C82.4308 22.0525 82.4415 21.9302 82.4709 18.75L82.498 15.829L81.9242 15.7001C81.3669 15.5748 80.4786 15.4516 80.2421 15.4667C80.178 15.4708 79.9417 15.4939 79.7171 15.5179ZM5.81445 15.8437C3.29585 16.2986 1.27571 18.1126 0.48821 20.6267L0.325635 21.1458L0.309302 25.7979L0.292969 30.45H4.54529C9.21394 30.45 9.31054 30.4441 10.3586 30.0939C12.3064 29.4429 13.9309 27.8185 14.5818 25.8706C14.9323 24.8219 14.938 24.7287 14.938 20.0299V15.75L10.6067 15.7552C7.12701 15.7594 6.18481 15.7768 5.81445 15.8437ZM15.988 21.2988C15.988 25.9996 16.0017 26.9402 16.078 27.4539C16.6436 31.2631 19.7249 34.3443 23.5341 34.91C24.0478 34.9862 24.9883 35 29.6892 35H35.238V29.4512C35.238 24.7504 35.2242 23.8098 35.1479 23.2961C34.5823 19.4869 31.5011 16.4057 27.6918 15.84C27.1782 15.7638 26.2376 15.75 21.5367 15.75H15.988V21.2988Z" fill="#CDD4F0"/>
</svg>
