<svg width="21" height="21" viewBox="0 0 21 21" fill="none" xmlns="http://www.w3.org/2000/svg">
<rect x="0.950439" y="1.57568" width="18.6772" height="18.5338" rx="9.26689" transform="rotate(-0.325931 0.950439 1.57568)" fill="#CDD4F0"/>
<g clip-path="url(#clip0_549_13766)">
<path d="M8.39432 10.4828L8.38547 8.9264C8.38253 8.41042 8.58469 7.91441 8.94747 7.54748C9.31024 7.18055 9.80392 6.97276 10.3199 6.96982C10.8359 6.96689 11.3319 7.16905 11.6988 7.53182C12.0658 7.8946 12.2735 8.38828 12.2765 8.90426L12.2853 10.4607M7.61612 10.4872L13.0635 10.4562C13.4933 10.4538 13.8437 10.8002 13.8462 11.23L13.8617 13.9537C13.8641 14.3835 13.5177 14.7339 13.0879 14.7364L7.64046 14.7673C7.21068 14.7698 6.86028 14.4234 6.85784 13.9936L6.84234 11.2699C6.8399 10.8401 7.18633 10.4897 7.61612 10.4872Z" stroke="#19213D" stroke-width="0.778215" stroke-linecap="round" stroke-linejoin="round"/>
</g>
<rect x="0.950439" y="1.57568" width="18.6772" height="18.5338" rx="9.26689" transform="rotate(-0.325931 0.950439 1.57568)" stroke="#CDD4F0" stroke-width="1.55643"/>
<defs>
<clipPath id="clip0_549_13766">
<rect width="9.33858" height="9.33858" fill="white" transform="translate(5.64624 6.21826) rotate(-0.325931)"/>
</clipPath>
</defs>
</svg>
