<svg width="162" height="44" viewBox="0 0 162 44" fill="none" xmlns="http://www.w3.org/2000/svg">
<g clip-path="url(#clip0_243_6332)">
<path d="M8.30759 20.899V20.7068H14.1517V21.3604C14.1517 22.7638 14.6515 23.129 18.5637 23.129C22.1105 23.129 22.4854 22.8503 22.4854 21.9179C22.4854 21.1778 22.0817 20.8606 20.3707 20.6491L13.8441 19.7744C9.99931 19.2458 8 17.1696 8 13.8053C8 10.4411 10.576 7 18.1023 7C24.725 7 27.8874 9.88362 27.8874 14.5551V14.7377H22.0528V14.2763C22.0528 12.7865 21.3992 12.2866 17.4775 12.2866C14.4978 12.2866 13.8441 12.6903 13.8441 13.5939C13.8441 14.2475 14.219 14.5551 15.334 14.7089L21.8606 15.6701C26.955 16.4198 28.3295 19.0343 28.3295 21.7065C28.3295 25.2725 25.5901 28.4349 18.5637 28.4349C12.2005 28.4445 8.30759 26.1761 8.30759 20.899Z" fill="#CDD4F0"/>
<path d="M52.2539 22.5139V12.4692H58.0884V20.3704C58.0884 22.5427 58.9343 23.254 61.6064 23.254C64.2786 23.254 64.9611 22.6004 64.9611 20.5818V12.4692H70.8052V28.1369H65.3648V23.3309H65.0476C64.7111 25.9454 62.9714 28.3964 58.7132 28.3964C54.4551 28.3964 52.2539 25.8973 52.2539 22.5139Z" fill="#CDD4F0"/>
<path d="M72.5449 28.1371V7.31738H78.3794V28.1371H72.5449Z" fill="#CDD4F0"/>
<path d="M82.5029 28.1371V7.31738H85.55L92.5475 20.8992L94.3834 24.7441H94.5372L96.3347 20.8992L103.303 7.31738H106.341V28.1371H104.101V13.4691L104.159 10.672H103.976L102.669 13.4691L95.7387 26.926H93.0666L86.1363 13.4691L84.8002 10.672H84.6464L84.7041 13.4691V28.1371H82.5029Z" fill="#9D67BA"/>
<path d="M109.195 24.5327C109.195 22.0144 111.272 20.9282 114.136 20.611L121.441 19.8036V18.6213C121.441 15.6416 120.134 14.4593 116.779 14.4593C113.425 14.4593 111.743 15.6416 111.743 18.3041V18.4291H109.58V18.3041C109.58 15.0745 112.252 12.4312 116.981 12.4312C121.71 12.4312 123.633 15.1033 123.633 18.4964V28.1084H121.595V23.9752H121.441C120.538 26.8012 117.837 28.416 114.261 28.416C111.243 28.4449 109.195 27.0127 109.195 24.5327ZM114.751 26.7339C118.481 26.7339 121.48 25.0902 121.48 21.3896V21.2646L114.857 22.0144C112.56 22.2355 111.435 22.793 111.435 24.379C111.435 25.9649 112.463 26.7339 114.751 26.7339Z" fill="#9D67BA"/>
<path d="M133.303 28.1371C130.266 28.1371 128.305 26.8587 128.305 23.2541V14.6802H125.565V12.7577H128.305V9.08594H130.544V12.7577H136.629V14.6802H130.544V23.331C130.544 25.4745 131.602 26.0705 133.832 26.0705H136.629V28.089L133.303 28.1371Z" fill="#9D67BA"/>
<path d="M138.282 20.4569C138.282 15.795 141.387 12.4692 146.328 12.4692C150.836 12.4692 154.017 15.0837 154.017 19.6495C154.017 20.131 153.966 20.6111 153.863 21.0816H140.339C140.464 24.5324 142.262 26.6086 146.308 26.6086C149.913 26.6086 151.595 25.2725 151.595 23.0425V22.8214H153.796V23.0425C153.796 26.2433 150.624 28.4445 146.337 28.4445C141.416 28.4445 138.282 25.3398 138.282 20.4569ZM140.358 19.7167H151.951V19.2457C151.951 16.0161 149.903 14.3051 146.299 14.3051C142.319 14.3051 140.512 16.3525 140.339 19.7167H140.358Z" fill="#9D67BA"/>
<g opacity="0.24" filter="url(#filter0_f_243_6332)">
<circle cx="39.6135" cy="22.6179" r="15.2737" fill="#081939"/>
<circle cx="39.6135" cy="22.6179" r="15.2737" fill="url(#paint0_radial_243_6332)" fill-opacity="0.9"/>
<circle cx="39.6135" cy="22.6179" r="15.2737" fill="url(#paint1_radial_243_6332)" fill-opacity="0.85"/>
<circle cx="39.6135" cy="22.6179" r="15.2737" fill="url(#paint2_radial_243_6332)" fill-opacity="0.8"/>
<circle cx="39.6135" cy="22.6179" r="15.2737" fill="url(#paint3_radial_243_6332)" fill-opacity="0.88"/>
</g>
<g filter="url(#filter1_df_243_6332)">
<path d="M52.667 20.0679C52.667 27.285 46.8163 33.1357 39.5991 33.1357C32.3819 33.1357 26.5312 27.285 26.5312 20.0679C26.5312 12.8507 32.3819 7 39.5991 7C46.8163 7 52.667 12.8507 52.667 20.0679Z" fill="#081939"/>
<path d="M52.667 20.0679C52.667 27.285 46.8163 33.1357 39.5991 33.1357C32.3819 33.1357 26.5312 27.285 26.5312 20.0679C26.5312 12.8507 32.3819 7 39.5991 7C46.8163 7 52.667 12.8507 52.667 20.0679Z" fill="url(#paint4_radial_243_6332)" fill-opacity="0.9"/>
<path d="M52.667 20.0679C52.667 27.285 46.8163 33.1357 39.5991 33.1357C32.3819 33.1357 26.5312 27.285 26.5312 20.0679C26.5312 12.8507 32.3819 7 39.5991 7C46.8163 7 52.667 12.8507 52.667 20.0679Z" fill="url(#paint5_radial_243_6332)" fill-opacity="0.85"/>
<path d="M52.667 20.0679C52.667 27.285 46.8163 33.1357 39.5991 33.1357C32.3819 33.1357 26.5312 27.285 26.5312 20.0679C26.5312 12.8507 32.3819 7 39.5991 7C46.8163 7 52.667 12.8507 52.667 20.0679Z" fill="url(#paint6_radial_243_6332)" fill-opacity="0.8"/>
<path d="M52.667 20.0679C52.667 27.285 46.8163 33.1357 39.5991 33.1357C32.3819 33.1357 26.5312 27.285 26.5312 20.0679C26.5312 12.8507 32.3819 7 39.5991 7C46.8163 7 52.667 12.8507 52.667 20.0679Z" fill="url(#paint7_radial_243_6332)" fill-opacity="0.88"/>
</g>
<path d="M34.9155 12.889C33.9104 9.71867 38.55 9.64233 40.1735 13.353C40.9944 15.2293 40.8369 17.8968 40.6605 20.5705C38.1376 17.6059 35.4424 14.5512 34.9155 12.889Z" fill="url(#paint8_linear_243_6332)"/>
<path d="M41.3842 29.1271C49.6616 27.6664 53.1517 20.5067 50.0195 15.9506C48.5587 13.8256 46.271 14.2201 41.3842 14.5128C36.4975 14.8054 31.6407 15.6262 31.6406 22.0132C31.6405 28.4003 37.5809 29.7983 41.3842 29.1271Z" fill="url(#paint9_radial_243_6332)"/>
<path d="M41.3842 29.1271C49.6616 27.6664 53.1517 20.5067 50.0195 15.9506C48.5587 13.8256 46.271 14.2201 41.3842 14.5128C36.4975 14.8054 31.6407 15.6262 31.6406 22.0132C31.6405 28.4003 37.5809 29.7983 41.3842 29.1271Z" fill="url(#paint10_linear_243_6332)"/>
<g style="mix-blend-mode:hard-light">
<path d="M34.0371 21.6266C34.037 17.3544 35.3573 13.3694 36.0217 11.4828C36.295 10.7065 37.318 10.4855 38 10.9461C39.1613 11.6464 41.5009 13.3475 43.8626 14.9784C46.3167 16.6732 49.8556 18.5468 48.2314 24.1028C47.0008 28.3124 40.9964 28.1219 40.9964 28.1219C40.9964 28.1219 34.0373 28.0061 34.0371 21.6266Z" fill="url(#paint11_linear_243_6332)"/>
</g>
<path d="M47.4669 27.9271C50.8691 24.9503 52.0504 18.7275 49.7692 14.8614C47.4881 10.9953 44.2382 10.095 41.5342 10.2218C38.8301 10.3485 33.3378 12.0393 33.1058 18.1089C32.8738 24.1785 36.0305 26.753 39.3323 29.6537C40.608 30.7745 44.0647 30.904 47.4669 27.9271Z" fill="url(#paint12_linear_243_6332)"/>
<path d="M35.6464 26.084C35.8409 26.199 36.0147 26.3109 36.1445 26.4272C37.8381 27.9438 40.4342 27.7828 43.1835 27.0639C46.0834 26.3055 50.7869 24.9389 51.5506 21.3198C51.9832 19.2695 50.4133 16.5154 48.3075 14.2808C46.3893 12.2452 44.0492 10.6408 41.9292 10.392C41.3981 10.3297 40.7499 10.3238 40.0544 10.4143C36.0274 11.2451 33.8535 13.4967 33.5215 18.0786C33.1895 22.6606 33.5642 23.5451 35.6464 26.084Z" fill="url(#paint13_linear_243_6332)" fill-opacity="0.78"/>
<g style="mix-blend-mode:color-dodge">
<path d="M30.6992 21.2536C30.0683 16.8709 31.927 12.146 36.1778 12.146C39.5336 12.146 41.43 14.7115 44.0081 16.3967C47.1742 18.4663 49.6012 19.8935 49.6012 21.9898C49.6012 25.7931 43.9307 27.813 38.5222 25.6479C34.5759 24.0682 31.33 25.6364 30.6992 21.2536Z" fill="url(#paint14_radial_243_6332)" fill-opacity="0.8"/>
</g>
<path d="M30.6992 21.2536C30.0683 16.8709 31.927 12.146 36.1778 12.146C39.5336 12.146 41.43 14.7115 44.0081 16.3967C47.1742 18.4663 49.6012 19.8935 49.6012 21.9898C49.6012 25.7931 43.9307 27.813 38.5222 25.6479C34.5759 24.0682 31.33 25.6364 30.6992 21.2536Z" fill="url(#paint15_linear_243_6332)"/>
<path d="M40.9853 27.6966C42.3772 31.5243 45.8956 30.3252 45.354 27.3099C45.0964 25.8756 42.9492 23.26 40.6602 20.5703C40.4878 23.1844 40.2972 25.8044 40.9853 27.6966Z" fill="url(#paint16_radial_243_6332)"/>
<path d="M40.9853 27.6966C42.3772 31.5243 45.8956 30.3252 45.354 27.3099C45.0964 25.8756 42.9492 23.26 40.6602 20.5703C40.4878 23.1844 40.2972 25.8044 40.9853 27.6966Z" fill="url(#paint17_linear_243_6332)"/>
</g>
<defs>
<filter id="filter0_f_243_6332" x="-197.061" y="-214.057" width="473.35" height="473.349" filterUnits="userSpaceOnUse" color-interpolation-filters="sRGB">
<feFlood flood-opacity="0" result="BackgroundImageFix"/>
<feBlend mode="normal" in="SourceGraphic" in2="BackgroundImageFix" result="shape"/>
<feGaussianBlur stdDeviation="110.7" result="effect1_foregroundBlur_243_6332"/>
</filter>
<filter id="filter1_df_243_6332" x="-223.469" y="-196.26" width="526.136" height="526.136" filterUnits="userSpaceOnUse" color-interpolation-filters="sRGB">
<feFlood flood-opacity="0" result="BackgroundImageFix"/>
<feColorMatrix in="SourceAlpha" type="matrix" values="0 0 0 0 0 0 0 0 0 0 0 0 0 0 0 0 0 0 127 0" result="hardAlpha"/>
<feOffset dy="46.7402"/>
<feGaussianBlur stdDeviation="125"/>
<feColorMatrix type="matrix" values="0 0 0 0 0.121569 0 0 0 0 0.145098 0 0 0 0 0.258824 0 0 0 0.45 0"/>
<feBlend mode="normal" in2="BackgroundImageFix" result="effect1_dropShadow_243_6332"/>
<feBlend mode="normal" in="SourceGraphic" in2="effect1_dropShadow_243_6332" result="shape"/>
<feGaussianBlur stdDeviation="0.5" result="effect2_foregroundBlur_243_6332"/>
</filter>
<radialGradient id="paint0_radial_243_6332" cx="0" cy="0" r="1" gradientUnits="userSpaceOnUse" gradientTransform="translate(34.6429 12.3602) rotate(63.1327) scale(11.499 13.6409)">
<stop stop-color="#7D7194"/>
<stop offset="1" stop-color="#7D7194" stop-opacity="0"/>
</radialGradient>
<radialGradient id="paint1_radial_243_6332" cx="0" cy="0" r="1" gradientUnits="userSpaceOnUse" gradientTransform="translate(54.0739 17.6925) rotate(161.19) scale(15.2762)">
<stop stop-color="#4A8F9F"/>
<stop offset="1" stop-color="#4A8F9F" stop-opacity="0"/>
</radialGradient>
<radialGradient id="paint2_radial_243_6332" cx="0" cy="0" r="1" gradientUnits="userSpaceOnUse" gradientTransform="translate(44.6747 37.0784) rotate(-108.939) scale(9.74608)">
<stop stop-color="#5C4763"/>
<stop offset="1" stop-color="#5C4763" stop-opacity="0"/>
</radialGradient>
<radialGradient id="paint3_radial_243_6332" cx="0" cy="0" r="1" gradientUnits="userSpaceOnUse" gradientTransform="translate(22.9842 28.131) rotate(-18.3418) scale(17.5194 24.3524)">
<stop stop-color="#3D3041"/>
<stop offset="1" stop-color="#3D3041" stop-opacity="0"/>
</radialGradient>
<radialGradient id="paint4_radial_243_6332" cx="0" cy="0" r="1" gradientUnits="userSpaceOnUse" gradientTransform="translate(35.3463 11.2916) rotate(63.1327) scale(9.83828 11.6708)">
<stop stop-color="#7D7194"/>
<stop offset="1" stop-color="#7D7194" stop-opacity="0"/>
</radialGradient>
<radialGradient id="paint5_radial_243_6332" cx="0" cy="0" r="1" gradientUnits="userSpaceOnUse" gradientTransform="translate(51.9711 15.8537) rotate(161.19) scale(13.07)">
<stop stop-color="#4A8F9F"/>
<stop offset="1" stop-color="#4A8F9F" stop-opacity="0"/>
</radialGradient>
<radialGradient id="paint6_radial_243_6332" cx="0" cy="0" r="1" gradientUnits="userSpaceOnUse" gradientTransform="translate(43.9293 32.4399) rotate(-108.939) scale(8.33854)">
<stop stop-color="#5C4763"/>
<stop offset="1" stop-color="#5C4763" stop-opacity="0"/>
</radialGradient>
<radialGradient id="paint7_radial_243_6332" cx="0" cy="0" r="1" gradientUnits="userSpaceOnUse" gradientTransform="translate(25.3714 24.7847) rotate(-18.3418) scale(14.9892 20.8354)">
<stop stop-color="#3D3041"/>
<stop offset="1" stop-color="#3D3041" stop-opacity="0"/>
</radialGradient>
<linearGradient id="paint8_linear_243_6332" x1="34.7744" y1="12.7344" x2="40.3781" y2="11.8065" gradientUnits="userSpaceOnUse">
<stop stop-color="#E375A0"/>
<stop offset="1" stop-color="#E375A0" stop-opacity="0"/>
</linearGradient>
<radialGradient id="paint9_radial_243_6332" cx="0" cy="0" r="1" gradientUnits="userSpaceOnUse" gradientTransform="translate(36.3573 16.5232) rotate(69.3339) scale(9.42126 11.3479)">
<stop stop-color="#B850C1"/>
<stop offset="1" stop-color="#DCADE0" stop-opacity="0"/>
</radialGradient>
<linearGradient id="paint10_linear_243_6332" x1="42.0214" y1="14.265" x2="41.9339" y2="17.1973" gradientUnits="userSpaceOnUse">
<stop stop-color="#B850C1"/>
<stop offset="1" stop-color="#DCADE0" stop-opacity="0"/>
</linearGradient>
<linearGradient id="paint11_linear_243_6332" x1="35.5063" y1="23.637" x2="42.7748" y2="20.8534" gradientUnits="userSpaceOnUse">
<stop stop-color="#7EA1E4"/>
<stop offset="1" stop-color="#70CBFF" stop-opacity="0"/>
</linearGradient>
<linearGradient id="paint12_linear_243_6332" x1="50.9083" y1="19.307" x2="42.0217" y2="23.3119" gradientUnits="userSpaceOnUse">
<stop stop-color="#5BAEEC"/>
<stop offset="1" stop-color="#5BAEEC" stop-opacity="0"/>
</linearGradient>
<linearGradient id="paint13_linear_243_6332" x1="36.2441" y1="18.3647" x2="48.0311" y2="20.5561" gradientUnits="userSpaceOnUse">
<stop stop-color="#85FAFE" stop-opacity="0"/>
<stop offset="1" stop-color="#85FAFE"/>
</linearGradient>
<radialGradient id="paint14_radial_243_6332" cx="0" cy="0" r="1" gradientUnits="userSpaceOnUse" gradientTransform="translate(35.6314 14.3968) rotate(84.3771) scale(8.62491 9.63302)">
<stop stop-color="#65ECE8"/>
<stop offset="1" stop-color="#8BECE9" stop-opacity="0"/>
</radialGradient>
<linearGradient id="paint15_linear_243_6332" x1="46.0476" y1="24.2003" x2="48.5861" y2="19.3423" gradientUnits="userSpaceOnUse">
<stop stop-color="#7BE7F6" stop-opacity="0"/>
<stop offset="0.75" stop-color="#7BE7F6"/>
</linearGradient>
<radialGradient id="paint16_radial_243_6332" cx="0" cy="0" r="1" gradientUnits="userSpaceOnUse" gradientTransform="translate(41.5377 29.2046) rotate(-68.2079) scale(5.41649 6.95414)">
<stop stop-color="#E375A0" stop-opacity="0"/>
<stop offset="1" stop-color="#FF91C6"/>
</radialGradient>
<linearGradient id="paint17_linear_243_6332" x1="40.9964" y1="21.7041" x2="41.383" y2="24.3331" gradientUnits="userSpaceOnUse">
<stop stop-color="white"/>
<stop offset="1" stop-color="white" stop-opacity="0"/>
</linearGradient>
<clipPath id="clip0_243_6332">
<rect width="162" height="44" fill="white"/>
</clipPath>
</defs>
</svg>
