<svg width="37" height="26" viewBox="0 0 37 26" fill="none" xmlns="http://www.w3.org/2000/svg">
<rect x="1.08979" y="0.937447" width="35.0197" height="24.1247" rx="4.28018" fill="white"/>
<path fill-rule="evenodd" clip-rule="evenodd" d="M23.0897 19.6717C26.9754 19.6717 30.1255 16.5591 30.1255 12.7196C30.1255 8.88012 26.9754 5.76758 23.0897 5.76758C21.3482 5.76758 19.7545 6.39277 18.5259 7.42839C17.2973 6.39283 15.7036 5.76768 13.9622 5.76768C10.0764 5.76768 6.92639 8.88022 6.92639 12.7197C6.92639 16.5593 10.0764 19.6718 13.9622 19.6718C15.7037 19.6718 17.2974 19.0466 18.526 18.011C19.7546 19.0465 21.3482 19.6717 23.0897 19.6717Z" fill="#ED0006"/>
<path fill-rule="evenodd" clip-rule="evenodd" d="M18.5259 18.0109C20.0387 16.7358 20.9979 14.8384 20.9979 12.7196C20.9979 10.6009 20.0387 8.70347 18.5259 7.42833C19.7545 6.39274 21.3482 5.76758 23.0896 5.76758C26.9754 5.76758 30.1254 8.88012 30.1254 12.7196C30.1254 16.5591 26.9754 19.6717 23.0896 19.6717C21.3482 19.6717 19.7545 19.0465 18.5259 18.0109Z" fill="#F9A000"/>
<path fill-rule="evenodd" clip-rule="evenodd" d="M18.5259 18.0107C20.0387 16.7356 20.9979 14.8382 20.9979 12.7195C20.9979 10.6007 20.0387 8.70336 18.5259 7.42822C17.0132 8.70336 16.054 10.6007 16.054 12.7195C16.054 14.8382 17.0132 16.7356 18.5259 18.0107Z" fill="#FF5E00"/>
<rect x="1.08979" y="0.937447" width="35.0197" height="24.1247" rx="4.28018" stroke="#F2F4F7" stroke-width="0.778215"/>
</svg>
