<svg width="141" height="35" viewBox="0 0 141 35" fill="none" xmlns="http://www.w3.org/2000/svg">
<path fill-rule="evenodd" clip-rule="evenodd" d="M11.4502 0.0139449C10.773 0.0874407 9.94037 0.244131 9.31151 0.416536C5.0612 1.58137 1.66362 4.97895 0.498787 9.22926C0.0731773 10.7821 0.0869651 10.5052 0.0869651 17.5023C0.0869651 24.4995 0.0731773 24.2226 0.498787 25.7754C1.66362 30.0257 5.0612 33.4233 9.31151 34.5881C10.8643 35.0137 10.5875 35 17.5846 35C24.5817 35 24.3048 35.0137 25.8577 34.5881C30.108 33.4233 33.5055 30.0257 34.6704 25.7754C35.096 24.2226 35.0822 24.4995 35.0822 17.5023C35.0822 11.6845 35.0743 11.1751 34.9752 10.5864C34.6262 8.51393 33.8202 6.64008 32.5474 4.94214C32.1379 4.39577 31.1339 3.3507 30.5548 2.8679C28.9084 1.49525 26.9141 0.567793 24.683 0.137158C24.0553 0.0159897 23.8962 0.0128348 17.8475 0.00243557C14.4414 -0.00346513 11.5627 0.00173449 11.4502 0.0139449ZM104.43 4.61082C103.74 4.84013 103.22 5.29192 102.922 5.92054C102.753 6.27762 102.736 6.36625 102.736 6.87062C102.736 7.37959 102.752 7.45952 102.925 7.81076C103.154 8.27709 103.606 8.74283 104.029 8.94994C104.702 9.27904 105.685 9.27115 106.387 8.93113C106.788 8.73705 107.312 8.21814 107.496 7.83336C107.685 7.43591 107.732 6.55262 107.586 6.11486C107.391 5.52672 106.807 4.9412 106.154 4.67959C105.81 4.54188 104.763 4.50011 104.43 4.61082ZM11.5086 13.2653V19.6498L10.6177 19.6796C9.60573 19.7135 9.21038 19.8054 8.4385 20.1858C7.76933 20.5155 7.24936 21.0079 6.96741 21.5786C6.75861 22.0013 6.74722 22.0534 6.74874 22.5823C6.75014 23.0694 6.77141 23.1862 6.91665 23.5036C7.31906 24.3832 8.16859 24.8441 9.64674 24.9851C11.1214 25.1256 12.1286 24.7726 13.1513 23.7567C13.6252 23.2861 13.7503 23.1207 13.9494 22.702C14.0793 22.4288 14.2142 22.066 14.2492 21.8958C14.2915 21.6903 14.3129 20.2657 14.3129 17.6609V13.7356L15.4929 14.9617C16.142 15.6361 17.0485 16.569 17.5076 17.035L18.3422 17.8821L20.4464 15.7792L22.5505 13.6762V21.0518V28.4274H23.9527H25.3548V17.6632V6.89895L21.85 10.4034L18.3452 13.9078L18.208 13.7625C17.8671 13.4016 13.5938 9.0048 12.6071 7.99981L11.5086 6.88096V13.2653ZM48.4006 11.803C46.9494 12.0286 45.7672 12.8426 44.9499 14.1792L44.722 14.552L44.7062 13.3397L44.6904 12.1274H42.8513H41.0121V19.8977V27.6679H42.967H44.9219L44.9405 22.921L44.9591 18.1742L45.0928 17.737C45.482 16.4642 46.33 15.6171 47.497 15.3352C47.9552 15.2245 48.9699 15.2356 49.3666 15.3556C50.258 15.6253 50.7941 16.3378 51.0007 17.5277C51.0387 17.7469 51.0608 19.6743 51.0608 22.7719V27.6695L53.0034 27.654L54.9459 27.6387L54.9763 22.9356C55.0062 18.3054 55.0087 18.2255 55.1359 17.7745C55.568 16.2433 56.5326 15.3808 57.9547 15.2539C58.8138 15.1773 59.6324 15.4076 60.1356 15.8675C60.5036 16.2039 60.7714 16.6785 60.9488 17.3087C61.0758 17.76 61.0775 17.8214 61.0959 22.7173L61.1145 27.6695L63.0546 27.654L64.9947 27.6387L64.9942 22.4391C64.9937 17.2618 64.9931 17.2362 64.8587 16.4894C64.5134 14.5726 63.7952 13.3328 62.572 12.5422C61.7948 12.0399 60.9252 11.7899 59.7658 11.7357C57.494 11.6295 55.7856 12.4178 54.6329 14.1042L54.34 14.5328L54.2112 14.2794C53.7065 13.287 52.9148 12.5424 51.9498 12.1527C50.9589 11.7524 49.5923 11.6178 48.4006 11.803ZM118.111 11.7762C113.973 12.2983 111.145 15.1595 110.832 19.1426C110.635 21.6565 111.372 23.8342 112.994 25.5313C114.103 26.6912 115.557 27.4725 117.312 27.8511C117.827 27.9622 118.108 27.9839 119.065 27.9864C120.05 27.9888 120.286 27.9709 120.809 27.8539C122.146 27.5544 123.458 26.9687 124.322 26.2856C124.584 26.0784 124.79 25.8853 124.78 25.8565C124.769 25.8277 124.192 25.1891 123.495 24.4373L122.23 23.0706L121.818 23.4668C119.76 25.4448 116.115 24.4943 115.033 21.6976C114.783 21.0487 114.662 20.2834 114.704 19.6056C114.75 18.858 114.872 18.4065 115.221 17.6799C115.48 17.1413 115.578 17.0058 116.049 16.5375C116.496 16.0914 116.671 15.9625 117.137 15.7334C117.738 15.4378 118.205 15.3093 118.89 15.2507C119.88 15.166 120.902 15.6038 121.841 16.5152L122.134 16.7999L123.497 15.4363L124.86 14.0728L124.423 13.6776C123.397 12.7484 122.302 12.2061 120.805 11.8864C120.187 11.7544 118.75 11.6956 118.111 11.7762ZM132.444 11.7789C130.32 12.037 128.599 12.7595 127.38 13.9045L127.04 14.2241L128.067 15.2542L129.094 16.2843L129.41 16.0117C130.057 15.4552 131.033 14.9897 132.004 14.7757C132.596 14.6451 133.757 14.6465 134.342 14.7785C135.94 15.1387 136.758 16.1321 136.766 17.7214L136.767 17.9697L135.467 17.9702C130.622 17.9721 127.875 18.8971 126.665 20.9334C126.206 21.7062 126.045 22.4496 126.089 23.5879C126.124 24.4837 126.291 25.0438 126.715 25.6893C127.493 26.8736 128.818 27.6578 130.508 27.9345C131.372 28.0759 132.669 28.0277 133.444 27.8253C134.737 27.4875 135.823 26.7634 136.479 25.8002C136.589 25.6387 136.699 25.5064 136.723 25.5064C136.747 25.5063 136.767 25.993 136.767 26.5879V27.6696L138.505 27.6542L140.243 27.6387L140.26 23.1693C140.279 18.2054 140.236 16.9428 140.015 15.9833C139.693 14.5877 139.043 13.5596 138.061 12.8933C137.322 12.3915 136.426 12.0392 135.433 11.8595C134.832 11.7506 133.068 11.703 132.444 11.7789ZM69.1861 17.5169C69.2093 23.496 69.203 23.3902 69.6069 24.5868C70.1845 26.2982 71.5026 27.4823 73.2828 27.8891C73.9145 28.0334 75.7685 28.0273 76.3579 27.8789C77.6466 27.5544 78.6421 26.7733 79.4261 25.4713L79.6296 25.1334V26.4006V27.6679H81.4699H83.3102V19.8977V12.1274H81.3855H79.4607L79.4395 16.7574C79.4186 21.2885 79.4154 21.3977 79.2912 21.8688C78.8475 23.5513 77.6441 24.508 75.9664 24.5121C75.135 24.5141 74.5478 24.2948 74.0812 23.8081C73.7293 23.4411 73.5379 23.085 73.3568 22.4598C73.1183 21.6371 73.0866 20.9235 73.0864 16.3777L73.0862 12.1274H71.1257H69.1652L69.1861 17.5169ZM86.9908 13.6756V15.2238H90.9052C93.058 15.2238 94.8195 15.2443 94.8195 15.2694C94.8195 15.2944 92.9671 17.2727 90.7031 19.6657L86.5867 24.0165L86.5843 25.8424L86.5819 27.6684L93.2567 27.6535L99.9315 27.6387L99.947 26.0762L99.9626 24.5138L95.6004 24.4988L91.2382 24.4839L95.3948 20.0729L99.5514 15.662L99.5516 13.8947L99.5517 12.1274H93.2713H86.9908V13.6756ZM103.247 19.8831L103.262 27.6387L105.204 27.654L107.147 27.6695V19.8984V12.1274H105.189H103.232L103.247 19.8831ZM133.731 20.7807C132.325 20.9055 131.116 21.3043 130.471 21.8567C129.981 22.2758 129.816 23.1439 130.102 23.7953C130.485 24.6672 131.556 25.1455 132.97 25.0767C134.172 25.018 134.993 24.7121 135.602 24.0956C136.208 23.4814 136.463 22.7626 136.516 21.5189L136.551 20.7156L135.417 20.7236C134.794 20.728 134.035 20.7537 133.731 20.7807Z" fill="#CDD4F0"/>
</svg>
