<svg width="36" height="25" viewBox="0 0 36 25" fill="none" xmlns="http://www.w3.org/2000/svg">
<rect x="0.389108" y="0.389108" width="35.0197" height="24.1247" rx="2.72375" fill="white"/>
<path fill-rule="evenodd" clip-rule="evenodd" d="M15.164 19.1424L15.393 17.6387L14.8828 17.6264H12.4465L14.1397 6.53052C14.1449 6.49692 14.162 6.46573 14.1869 6.44354C14.2119 6.42135 14.2438 6.40918 14.2772 6.40918H18.3851C19.749 6.40918 20.6901 6.70245 21.1814 7.28138C21.4118 7.55297 21.5585 7.83685 21.6295 8.14914C21.704 8.4769 21.7052 8.86843 21.6326 9.34606L21.6273 9.3808V9.68687L21.8577 9.82178C22.0516 9.92816 22.2058 10.0499 22.3241 10.1892C22.5211 10.4215 22.6485 10.7167 22.7024 11.0665C22.7581 11.4263 22.7397 11.8546 22.6485 12.3395C22.5434 12.8971 22.3735 13.3829 22.144 13.7802C21.933 14.1464 21.6641 14.4502 21.3448 14.6855C21.04 14.9092 20.6778 15.0789 20.2683 15.1876C19.8715 15.2944 19.4191 15.3482 18.9229 15.3482H18.6032C18.3747 15.3482 18.1526 15.4333 17.9783 15.5859C17.8035 15.7416 17.6879 15.9543 17.6525 16.187L17.6283 16.3224L17.2236 18.9727L17.2053 19.07C17.2004 19.1008 17.1921 19.1161 17.1798 19.1265C17.1689 19.136 17.1532 19.1424 17.1379 19.1424H15.164" fill="#28356A"/>
<path fill-rule="evenodd" clip-rule="evenodd" d="M22.076 9.41602C22.0639 9.49704 22.0497 9.57983 22.034 9.66491C21.4923 12.5398 19.6389 13.5329 17.2718 13.5329H16.0665C15.777 13.5329 15.533 13.7501 15.488 14.0453L14.6962 19.2368C14.6669 19.4307 14.8114 19.6052 15.0005 19.6052H17.1382C17.3913 19.6052 17.6063 19.4152 17.6462 19.1572L17.6672 19.045L18.0697 16.405L18.0955 16.2602C18.1349 16.0013 18.3505 15.8111 18.6035 15.8111H18.9232C20.9943 15.8111 22.6156 14.9421 23.0895 12.4271C23.2874 11.3765 23.185 10.4992 22.6611 9.88223C22.5027 9.69623 22.306 9.54179 22.076 9.41602" fill="#298FC2"/>
<path fill-rule="evenodd" clip-rule="evenodd" d="M21.509 9.1829C21.4262 9.15792 21.3408 9.13535 21.2533 9.11494C21.1652 9.09503 21.075 9.07741 20.9822 9.06194C20.6572 9.00767 20.3011 8.98193 19.9197 8.98193H16.6999C16.6205 8.98193 16.5452 9.00045 16.4779 9.03392C16.3293 9.10771 16.219 9.25301 16.1923 9.4309L15.5073 13.915L15.4877 14.0457C15.5327 13.7506 15.7767 13.5334 16.0662 13.5334H17.2714C19.6385 13.5334 21.492 12.5397 22.0337 9.66534C22.0499 9.58026 22.0635 9.49747 22.0756 9.41645C21.9386 9.34126 21.7902 9.27698 21.6303 9.2222C21.5908 9.20864 21.5501 9.19558 21.509 9.1829" fill="#22284F"/>
<path fill-rule="evenodd" clip-rule="evenodd" d="M16.1925 9.4308C16.2192 9.25291 16.3295 9.1076 16.4781 9.03432C16.5459 9.00072 16.6207 8.98221 16.7001 8.98221H19.9199C20.3013 8.98221 20.6574 9.00807 20.9823 9.06234C21.0752 9.07768 21.1654 9.09543 21.2534 9.11534C21.341 9.13563 21.4264 9.15832 21.5092 9.18317C21.5503 9.19585 21.591 9.20904 21.6309 9.2221C21.7907 9.27687 21.9393 9.34166 22.0763 9.41634C22.2375 8.35395 22.075 7.63061 21.5193 6.9756C20.9065 6.25441 19.8008 5.9458 18.3857 5.9458H14.2777C13.9887 5.9458 13.7421 6.16299 13.6975 6.45867L11.9864 17.6687C11.9527 17.8905 12.1182 18.0905 12.3346 18.0905H14.8707L16.1925 9.4308" fill="#28356A"/>
<rect x="0.389108" y="0.389108" width="35.0197" height="24.1247" rx="2.72375" stroke="#F2F4F7" stroke-width="0.778215"/>
</svg>
