<svg width="137" height="35" viewBox="0 0 137 35" fill="none" xmlns="http://www.w3.org/2000/svg">
<path fill-rule="evenodd" clip-rule="evenodd" d="M116.907 0.039817C110.417 0.703081 104.8 4.92343 102.381 10.9531C101.703 12.6444 101.323 14.2775 101.173 16.149C101.13 16.6761 101.115 19.3643 101.127 24.2639L101.144 31.5907L101.283 31.9994C101.689 33.2039 102.404 34.041 103.48 34.5735C104.414 35.036 103.897 35.0125 112.637 34.9904C121.057 34.9691 120.575 34.9862 122.247 34.6496C125.441 34.0066 128.621 32.2898 130.994 29.9277C133.726 27.2074 135.453 23.7731 135.999 19.9729C136.116 19.1603 136.116 15.8232 135.999 15.0106C135.196 9.42523 131.751 4.55977 126.744 1.94099C125.006 1.03171 123.14 0.437332 121.023 0.118689C120.294 0.00893358 117.697 -0.0408652 116.907 0.039817ZM30.9415 15.5662V26.4843L32.474 26.4688L34.0065 26.4532L34.0213 15.5506L34.036 4.64799H32.4888H30.9415V15.5662ZM69.2594 4.76475C68.7142 4.87801 68.1923 5.26735 67.9547 5.73796C67.7669 6.10978 67.7273 6.73668 67.8653 7.15223C67.9958 7.54508 68.4005 7.98626 68.8188 8.1917C69.1042 8.33182 69.2226 8.35517 69.648 8.35517C70.0734 8.35517 70.1918 8.33182 70.4772 8.1917C70.9252 7.97166 71.3132 7.53492 71.436 7.1123C71.635 6.4279 71.4309 5.65167 70.9381 5.21907C70.508 4.8414 69.8055 4.65126 69.2594 4.76475ZM75.5445 8.47193V10.4277H74.4352H73.326V11.6829V12.9381H74.406H75.4861L75.4865 17.7691C75.4868 20.6527 75.5109 22.8119 75.5463 23.1255C75.8005 25.377 76.8154 26.3042 79.289 26.5444C79.9695 26.6105 81.3459 26.5868 81.6598 26.5036C81.7906 26.4689 81.7912 26.4634 81.7912 25.2859V24.103L80.9009 24.0744C80.2592 24.0538 79.9242 24.0165 79.7012 23.9407C79.2674 23.7934 78.9101 23.4611 78.7443 23.0507L78.6094 22.7168L78.5929 17.8275L78.5765 12.9381H80.1546H81.7328V11.6829V10.4277H80.1565H78.5803V8.47193V6.51617H77.0624H75.5445V8.47193ZM117.345 7.18568C115.721 7.45587 114.431 8.11067 113.213 9.28348C111.897 10.5519 111.159 11.9055 110.894 13.541C110.78 14.2432 110.781 15.5814 110.897 16.2433C111.365 18.928 113.501 21.2996 116.054 21.97C116.696 22.1386 117.969 22.2121 118.644 22.1195C118.861 22.0898 119.038 22.0766 119.038 22.0904C119.038 22.1041 117.79 23.8079 116.265 25.8764C114.74 27.945 113.492 29.6504 113.492 29.6661C113.492 29.6819 114.06 30.117 114.755 30.6331C115.785 31.3987 116.031 31.557 116.089 31.4935C116.183 31.39 124.193 20.5479 124.535 20.0605C125.704 18.396 126.398 16.6002 126.49 15.0056C126.605 13.0199 125.913 11.2235 124.438 9.67773C123.244 8.42569 121.934 7.65652 120.381 7.29497C119.597 7.11247 118.107 7.05888 117.345 7.18568ZM20.1949 10.2848C17.5587 10.7621 15.733 12.5323 15.0921 15.2322C14.8859 16.101 14.8284 16.7891 14.8289 18.3798C14.8295 20.3116 14.9377 21.1974 15.3086 22.3082C16.0404 24.4997 17.5685 25.9305 19.8005 26.514C20.6194 26.7281 22.2084 26.7832 23.1295 26.6296C25.554 26.2251 27.2443 24.8532 27.9608 22.7082C28.2487 21.8466 28.385 21.9284 26.6651 21.9307L25.191 21.9327L24.9884 22.3831C24.8336 22.7271 24.6888 22.9314 24.3754 23.2476C23.7084 23.9207 22.9227 24.2172 21.8049 24.2179C20.7122 24.2186 19.9717 23.922 19.2295 23.1864C18.8362 22.7966 18.7101 22.6226 18.4872 22.1622C18.1405 21.4467 17.9837 20.7976 17.9402 19.9L17.9056 19.1848H23.1465H28.3873L28.3575 17.7983C28.3379 16.8833 28.2951 16.233 28.2316 15.8863C27.9352 14.2683 27.358 13.0493 26.4301 12.0821C25.5031 11.1158 24.4153 10.5441 23.0099 10.2844C22.3999 10.1716 20.8184 10.1719 20.1949 10.2848ZM42.2045 10.2848C39.2782 10.8146 37.3425 12.855 36.7713 16.0115C36.663 16.6097 36.6456 16.9293 36.6428 18.3675C36.6394 20.1353 36.6811 20.604 36.9301 21.6008C37.6212 24.367 39.5534 26.1854 42.2694 26.6258C42.9945 26.7434 44.4284 26.7435 45.1058 26.626C48.1501 26.0979 50.0848 23.9961 50.5857 20.6729C50.7094 19.8516 50.7084 17.0076 50.5842 16.1701C50.1055 12.9468 48.1095 10.802 45.1058 10.2837C44.4567 10.1716 42.8258 10.1722 42.2045 10.2848ZM57.9981 10.2795C55.2784 10.7735 53.3814 12.6992 52.7751 15.5813C52.5213 16.7873 52.4794 19.3152 52.6895 20.7305C52.936 22.3908 53.5724 23.756 54.5974 24.8236C55.4117 25.6718 56.3162 26.1927 57.5589 26.5288C58.0781 26.6692 58.209 26.6802 59.4022 26.6833C60.7716 26.687 61.1866 26.6331 62.0466 26.3404C63.8867 25.714 65.1405 24.3571 65.6232 22.4696C65.6855 22.2261 65.7365 21.9648 65.7365 21.8892V21.7516L64.2743 21.7672L62.8121 21.7827L62.6774 22.1685C62.228 23.4548 61.0379 24.146 59.4022 24.0706C58.375 24.0232 57.6481 23.7048 56.9928 23.0149C56.355 22.3433 55.954 21.4608 55.7744 20.3336C55.6528 19.5696 55.6919 16.6766 55.8319 16.0906C56.255 14.3198 57.1547 13.2792 58.5848 12.907C59.0718 12.7803 59.9588 12.7798 60.396 12.9061C61.43 13.2046 62.3212 14.0722 62.6145 15.0659L62.6843 15.3025L64.1812 15.3181C65.5795 15.3326 65.678 15.3268 65.6773 15.2305C65.6769 15.1738 65.6275 14.8909 65.5676 14.6019C65.1046 12.3699 63.2526 10.7087 60.7519 10.2826C60.1192 10.1747 58.5843 10.173 57.9981 10.2795ZM117.958 10.2903C116.705 10.4919 115.601 11.2182 114.868 12.3233C114.049 13.5566 113.977 15.414 114.698 16.7299C115.727 18.6109 117.741 19.4806 119.835 18.9483C121.334 18.5673 122.647 17.2114 122.984 15.6955C123.133 15.0265 123.078 13.8724 122.868 13.2592C122.407 11.9118 121.254 10.8096 119.905 10.4262C119.48 10.3054 118.353 10.2267 117.958 10.2903ZM3.1361e-08 10.4715C0.000175174 10.4955 1.23213 14.1013 2.73771 18.4842L5.47513 26.4532H7.18008H8.88503L11.6829 18.5718C13.2218 14.237 14.4964 10.6309 14.5153 10.5581L14.5497 10.4258L12.9814 10.4413L11.4132 10.4569L9.3181 16.7511C8.16578 20.2129 7.20145 23.0238 7.17517 22.9975C7.14884 22.9712 6.28428 20.2176 5.25392 16.8784C4.22356 13.5392 3.35339 10.7218 3.32029 10.6174L3.25998 10.4277H1.62982C0.733263 10.4277 -0.000175111 10.4474 3.1361e-08 10.4715ZM68.0861 18.4404L68.1009 26.4532L69.6334 26.4688L71.1659 26.4843V18.456V10.4277H69.6186H68.0713L68.0861 18.4404ZM82.9004 10.4916C82.9004 10.5277 84.1925 14.1686 85.7717 18.5825L88.6429 26.6077L88.5104 27.1143C88.1321 28.5596 87.6484 29.2477 86.7831 29.5714C86.3009 29.7518 85.4929 29.8324 84.7832 29.7708L84.1848 29.7187V30.9279V32.1369L84.5205 32.1849C85.148 32.2745 86.9138 32.2415 87.4133 32.1309C89.4829 31.6723 90.705 30.3481 91.8256 27.3498C92.1055 26.6011 97.6553 10.751 97.7154 10.5289C97.7416 10.4319 97.6461 10.4268 96.0943 10.4413L94.4454 10.4569L92.4505 16.7912C90.2993 23.622 90.384 23.3601 90.3416 23.3177C90.3257 23.3019 89.4106 20.4017 88.308 16.8729L86.3032 10.4569L84.6018 10.4414C83.3714 10.4302 82.9004 10.4441 82.9004 10.4916ZM20.7784 12.7312C19.5461 13.0449 18.6018 13.9486 18.1907 15.2075C18.0178 15.7371 17.9226 16.2409 17.9226 16.6268V16.908H21.6348H25.347L25.3056 16.4555C25.1397 14.6416 24.215 13.3416 22.7111 12.8083C22.2831 12.6565 21.2359 12.6147 20.7784 12.7312ZM42.9824 12.7653C41.2357 13.0791 40.1259 14.4398 39.8194 16.6433C39.7387 17.2232 39.7387 19.6286 39.8194 20.2084C39.9197 20.9298 40.0913 21.5109 40.3793 22.1038C40.6027 22.564 40.7292 22.7383 41.1223 23.1273C41.8619 23.8592 42.5849 24.145 43.6977 24.1453C45.1845 24.1457 46.2863 23.4662 46.9361 22.1482C47.4492 21.1072 47.5801 20.3469 47.5801 18.4057C47.5801 16.9781 47.4891 16.1623 47.2504 15.4484C46.7937 14.0824 45.9082 13.1645 44.7486 12.8547C44.3139 12.7386 43.3911 12.6919 42.9824 12.7653Z" fill="#CDD4F0"/>
</svg>
