<svg width="36" height="25" viewBox="0 0 36 25" fill="none" xmlns="http://www.w3.org/2000/svg">
<rect x="0.389108" y="0.389108" width="35.0197" height="24.1247" rx="4.28018" fill="white"/>
<path fill-rule="evenodd" clip-rule="evenodd" d="M11.1547 16.4551H9.01746L7.4148 10.161C7.33873 9.87146 7.17722 9.6155 6.93963 9.49486C6.34671 9.1917 5.69335 8.95043 4.98059 8.82874V8.58642H8.4235C8.89867 8.58642 9.25505 8.95043 9.31444 9.37318L10.146 13.9133L12.2822 8.58642H14.36L11.1547 16.4551ZM15.548 16.4551H13.5296L15.1916 8.58642H17.2101L15.548 16.4551ZM19.8213 10.7661C19.8807 10.3423 20.2371 10.1 20.6529 10.1C21.3062 10.0391 22.018 10.1608 22.6119 10.4629L22.9683 8.76879C22.3743 8.52647 21.721 8.40479 21.1281 8.40479C19.169 8.40479 17.7435 9.49471 17.7435 11.0074C17.7435 12.1582 18.7532 12.7624 19.466 13.1264C20.2371 13.4893 20.5341 13.7317 20.4747 14.0946C20.4747 14.6391 19.8807 14.8814 19.2878 14.8814C18.5751 14.8814 17.8623 14.6999 17.21 14.3967L16.8536 16.0919C17.5664 16.3941 18.3375 16.5157 19.0502 16.5157C21.2468 16.5755 22.6119 15.4867 22.6119 13.8523C22.6119 11.7941 19.8213 11.6735 19.8213 10.7661V10.7661ZM29.676 16.4551L28.0733 8.58642H26.3518C25.9955 8.58642 25.6391 8.82874 25.5203 9.1917L22.5526 16.4551H24.6304L25.0451 15.3053H27.5981L27.8357 16.4551H29.676ZM26.6488 10.7052L27.2417 13.6708H25.5796L26.6488 10.7052Z" fill="#172B85"/>
<rect x="0.389108" y="0.389108" width="35.0197" height="24.1247" rx="4.28018" stroke="#F2F4F7" stroke-width="0.778215"/>
</svg>
