<svg width="89" height="35" viewBox="0 0 89 35" fill="none" xmlns="http://www.w3.org/2000/svg">
<path fill-rule="evenodd" clip-rule="evenodd" d="M36.5185 1.03144C34.1113 1.59602 32.1374 2.06005 32.1319 2.06256C32.1205 2.06781 31.1207 7.43094 31.1207 7.48655C31.1207 7.50651 30.4122 7.52285 29.5462 7.52285H27.9717L27.9417 7.65415C27.9251 7.72639 27.6606 9.1772 27.3538 10.8782C27.0471 12.5793 26.7828 14.0165 26.7665 14.0722C26.7389 14.1662 26.8486 14.1745 28.3024 14.1889L29.8681 14.2044L28.8926 19.3688C27.8648 24.81 27.6628 25.9811 27.5639 27.0716C27.4767 28.0343 27.4883 29.4603 27.5885 30.0782C28.0121 32.6896 29.7545 34.3247 32.6955 34.8709C32.9975 34.927 33.6774 34.9747 34.4301 34.9926C36.193 35.0345 37.7416 34.8982 39.0104 34.5892C39.4676 34.4779 39.5213 34.4504 39.5499 34.3136C39.6109 34.0211 40.6323 27.6835 40.6324 27.5968C40.6325 27.5225 40.5506 27.515 40.0927 27.5475C39.2395 27.6081 38.4077 27.6023 38.0342 27.5332C36.9842 27.3391 36.4893 26.6526 36.4893 25.3902C36.4893 24.49 36.6205 23.6849 37.5611 18.8144L38.4515 14.2044L41.0546 14.1893L43.6579 14.1741L43.6906 14.0142C43.7086 13.9263 43.9735 12.5019 44.2793 10.8491C44.5851 9.19616 44.8501 7.77185 44.8684 7.68391L44.9013 7.52407L42.3138 7.50884L39.7263 7.49367L40.4014 3.74439C40.9637 0.62097 41.0612 -0.00406499 40.9857 1.98282e-05C40.9358 0.00276249 38.9256 0.466914 36.5185 1.03144ZM56.5341 7.00548C49.2123 7.63442 43.7351 13.5611 42.7623 21.9072C42.2479 26.3215 43.1718 29.675 45.5604 32.0641C47.592 34.096 50.2203 35.0238 53.6928 34.9347C55.9467 34.8769 57.7111 34.4566 59.6268 33.5212C64.1952 31.2907 67.3028 26.6578 68.1412 20.8277C68.3514 19.3661 68.4159 17.3356 68.2891 16.1716C68.1043 14.4747 67.5045 12.6897 66.6869 11.4034C64.6407 8.18406 61.0286 6.6194 56.5341 7.00548ZM80.2605 6.99807C77.2885 7.24742 74.7225 8.23647 72.8866 9.84016C71.4786 11.0701 70.493 12.7526 70.0907 14.6129C69.9413 15.3037 69.8819 16.9155 69.9828 17.5449C70.1978 18.8866 70.8414 20.123 71.9157 21.2582C72.7893 22.1813 73.5815 22.7718 75.2699 23.7585C77.2665 24.9253 77.8879 25.5945 77.8859 26.5756C77.8824 28.3453 75.7298 28.8791 72.2606 27.9707C71.4102 27.748 70.2526 27.3329 69.4415 26.96C69.1626 26.8318 68.9339 26.7453 68.9333 26.7679C68.9326 26.7905 68.4762 28.1942 67.9189 29.8873L66.9056 32.9656L67.3277 33.2286C68.3734 33.8805 70.082 34.4303 71.9688 34.7223C73.0932 34.8964 75.5013 34.9392 76.7539 34.8074C80.0447 34.4613 82.5596 33.4077 84.3456 31.6269C85.6015 30.3746 86.2876 29.0897 86.6754 27.2635C86.8483 26.4497 86.8957 24.8956 86.7696 24.1743C86.4779 22.5064 85.4578 20.9558 83.7355 19.5624C83.1694 19.1044 81.6391 18.0871 80.9846 17.7335C79.2509 16.7972 78.4962 15.9386 78.6749 15.1056C78.8068 14.4903 79.1261 14.1062 79.7268 13.8401C80.2417 13.6121 80.7304 13.5355 81.6774 13.5344C83.0422 13.5328 84.3928 13.7818 85.6287 14.2629C85.9309 14.3806 86.2295 14.4812 86.2922 14.4865C86.3934 14.4951 86.5103 14.1594 87.3254 11.5201C87.8309 9.88329 88.2609 8.47169 88.2809 8.38323C88.3156 8.2311 88.2961 8.21277 87.9189 8.04197C86.9355 7.59678 85.5864 7.25874 84.1066 7.08682C83.151 6.97577 81.0922 6.92827 80.2605 6.99807ZM6.46624 7.59579C6.43117 7.69756 5.09456 14.7254 5.09456 14.8082C5.09456 14.8585 6.26008 14.8755 9.70941 14.8755C12.2476 14.8755 14.3156 14.8957 14.3048 14.9204C14.2941 14.945 13.9309 15.2911 13.4976 15.6895C12.2886 16.801 10.2328 18.8823 9.28687 19.9524C8.81875 20.4819 6.91849 22.7115 5.06404 24.9071L1.69238 28.899L1.23488 31.6178C0.983255 33.1132 0.777147 34.3696 0.776856 34.4097C0.776447 34.4677 2.86904 34.4826 11.0467 34.4826C16.6954 34.4826 21.3171 34.4683 21.3171 34.4508C21.3171 34.4062 22.6592 27.3635 22.6983 27.2029L22.7303 27.0716H17.5839C14.7534 27.0716 12.4462 27.0507 12.457 27.025C12.4677 26.9994 12.8705 26.6232 13.3521 26.1891C15.4052 24.3385 16.3511 23.3044 21.1114 17.7057C22.9671 15.5233 24.5504 13.6671 24.63 13.5809C24.7618 13.4382 24.8183 13.1712 25.2611 10.6048C25.5286 9.05413 25.758 7.72639 25.7708 7.65415L25.7942 7.52285H16.1428C8.47399 7.52285 6.48626 7.53785 6.46624 7.59579ZM56.2715 13.7678C54.7641 14.0298 53.4641 15.6189 52.5485 18.3184C51.8478 20.3844 51.4971 22.5541 51.5603 24.4335C51.5957 25.4886 51.7118 26.0297 52.0507 26.7207C52.7228 28.0908 54.2362 28.5624 55.6587 27.8452C56.0212 27.6624 56.8635 26.8239 57.198 26.313C58.482 24.3511 59.4212 20.6806 59.4375 17.5598C59.442 16.6995 59.4231 16.4584 59.3175 16.0294C58.9911 14.7043 58.2384 13.9317 57.1158 13.7695C56.6613 13.7038 56.6397 13.7038 56.2715 13.7678Z" fill="#CDD4F0"/>
</svg>
